<svg xmlns="http://www.w3.org/2000/svg" width="1280" height="320" viewBox="0 0 1280 320">
  <defs>
    <radialGradient id="g0"><stop offset="0" stop-color="#4338CA" stop-opacity="0.368"/><stop offset="0.25" stop-color="#4338CA" stop-opacity="0.313"/><stop offset="0.5" stop-color="#4338CA" stop-opacity="0.184"/><stop offset="0.7" stop-color="#4338CA" stop-opacity="0.067"/><stop offset="1" stop-color="#4338CA" stop-opacity="0.000"/></radialGradient>
    <radialGradient id="g1"><stop offset="0" stop-color="#818CF8" stop-opacity="0.345"/><stop offset="0.25" stop-color="#818CF8" stop-opacity="0.293"/><stop offset="0.5" stop-color="#818CF8" stop-opacity="0.172"/><stop offset="0.7" stop-color="#818CF8" stop-opacity="0.062"/><stop offset="1" stop-color="#818CF8" stop-opacity="0.000"/></radialGradient>
    <radialGradient id="g2"><stop offset="0" stop-color="#5ED2EA" stop-opacity="0.184"/><stop offset="0.25" stop-color="#5ED2EA" stop-opacity="0.156"/><stop offset="0.5" stop-color="#5ED2EA" stop-opacity="0.092"/><stop offset="0.7" stop-color="#5ED2EA" stop-opacity="0.033"/><stop offset="1" stop-color="#5ED2EA" stop-opacity="0.000"/></radialGradient>
    <filter id="soft" x="-60%" y="-60%" width="220%" height="220%"><feGaussianBlur stdDeviation="11"/></filter>
    <linearGradient id="vm-body" x1="0.15" y1="0.1" x2="0.85" y2="0.95">
      <stop offset="0" stop-color="#818CF8"/>
      <stop offset="0.6" stop-color="#5B54DB"/>
      <stop offset="1" stop-color="#4338CA"/>
    </linearGradient>
    <radialGradient id="vm-caustic" cx="0.35" cy="0.8" r="0.45">
      <stop offset="0" stop-color="#5ED2EA" stop-opacity="0.5"/>
      <stop offset="1" stop-color="#5ED2EA" stop-opacity="0"/>
    </radialGradient>
    <clipPath id="vm-clip">
      <path d="M60 12 C74 15 85 26 86 41 C87 54 80 62 82 72 C83.5 80 76 86 68 83 C60 80 56 84 46 85 C30 86.5 14 76 12 59 C10 42 20 30 33 22 C42 16.5 50 10 60 12 Z"/>
    </clipPath>
  </defs>
  <g>
    <ellipse cx="965" cy="70" rx="225" ry="170" fill="url(#g0)" filter="url(#soft)"/>
    <ellipse cx="1120" cy="220" rx="185" ry="150" fill="url(#g1)" filter="url(#soft)"/>
    <ellipse cx="800" cy="255" rx="150" ry="110" fill="url(#g2)" filter="url(#soft)"/>
  </g>
  <g transform="translate(78.75,82.44) scale(0.4375)">
    <path d="M60 12 C74 15 85 26 86 41 C87 54 80 62 82 72 C83.5 80 76 86 68 83 C60 80 56 84 46 85 C30 86.5 14 76 12 59 C10 42 20 30 33 22 C42 16.5 50 10 60 12 Z" fill="url(#vm-body)"/>
  <g clip-path="url(#vm-clip)">
    <ellipse cx="36" cy="74" rx="28" ry="18" fill="url(#vm-caustic)"/>
  </g>
  <path d="M31 30 C26 36 23 43 24 50 C24.5 53.5 28.5 54 30 51 C32.5 46 31.5 39 35 33.5 C37 30 34 27 31 30 Z" fill="#FFFFFF" opacity="0.9"/>
  <circle cx="39" cy="24" r="2.8" fill="#FFFFFF" opacity="0.8"/>
  </g>
  <g transform="translate(84,161) scale(1.18) translate(-84,-161)">
    <g transform="translate(39.70,0)"><path fill="#17171A" d="M94.66 124L90.11 124L83.61 106.53L87.95 106.53L91.14 116.03Q91.53 117.19 91.84 118.36Q92.14 119.53 92.44 120.72Q92.72 119.53 93.02 118.36Q93.31 117.19 93.70 116.03L96.88 106.53L101.19 106.53M111.02 124.36Q108.38 124.36 106.48 123.25Q104.58 122.14 103.56 120.13Q102.53 118.11 102.53 115.38Q102.53 112.69 103.54 110.65Q104.55 108.61 106.40 107.46Q108.25 106.31 110.75 106.31Q112.88 106.31 114.70 107.24Q116.52 108.17 117.63 110.12Q118.73 112.06 118.73 115.13L118.73 116.41L106.58 116.41Q106.66 118.73 107.88 119.95Q109.11 121.17 111.06 121.17Q112.41 121.17 113.37 120.59Q114.33 120.02 114.73 118.91L118.47 119.67Q117.84 121.78 115.88 123.07Q113.92 124.36 111.02 124.36M106.59 113.64L114.78 113.64Q114.59 111.77 113.59 110.63Q112.58 109.50 110.77 109.50Q108.91 109.50 107.82 110.70Q106.73 111.89 106.59 113.64M125.64 113.77L125.64 124L121.58 124L121.58 106.53L125.42 106.53L125.47 110.02Q127.03 106.31 130.88 106.31Q133.58 106.31 135.21 108.03Q136.84 109.75 136.84 112.89L136.84 124L132.78 124L132.78 113.52Q132.78 111.77 131.88 110.77Q130.97 109.77 129.38 109.77Q127.75 109.77 126.70 110.81Q125.64 111.86 125.64 113.77M146.96 124.31Q144.89 124.31 143.26 123.26Q141.63 122.20 140.69 120.19Q139.75 118.17 139.75 115.30Q139.75 112.39 140.71 110.38Q141.66 108.38 143.29 107.34Q144.92 106.31 146.94 106.31Q148.50 106.31 149.49 106.84Q150.49 107.36 151.06 108.09Q151.64 108.81 151.96 109.42L152.13 109.42L152.13 100.72L156.19 100.72L156.19 124L152.21 124L152.21 121.23L151.96 121.23Q151.63 121.86 151.03 122.58Q150.44 123.30 149.45 123.80Q148.46 124.31 146.96 124.31M148.06 120.97Q150.05 120.97 151.13 119.40Q152.21 117.83 152.21 115.28Q152.21 112.73 151.13 111.20Q150.06 109.66 148.06 109.66Q146 109.66 144.96 111.25Q143.91 112.84 143.91 115.28Q143.91 117.73 144.96 119.35Q146.02 120.97 148.06 120.97M167.42 124.36Q164.88 124.36 163 123.23Q161.13 122.09 160.10 120.07Q159.08 118.05 159.08 115.36Q159.08 112.64 160.10 110.60Q161.13 108.56 163 107.44Q164.88 106.31 167.42 106.31Q169.97 106.31 171.85 107.44Q173.72 108.56 174.75 110.60Q175.78 112.64 175.78 115.36Q175.78 118.05 174.75 120.07Q173.72 122.09 171.85 123.23Q169.97 124.36 167.42 124.36M167.42 121.06Q168.85 121.06 169.78 120.30Q170.72 119.53 171.19 118.23Q171.66 116.94 171.66 115.34Q171.66 113.73 171.19 112.44Q170.72 111.14 169.78 110.38Q168.85 109.61 167.42 109.61Q166.02 109.61 165.08 110.38Q164.14 111.14 163.68 112.44Q163.22 113.73 163.22 115.34Q163.22 116.94 163.68 118.23Q164.14 119.53 165.08 120.30Q166.02 121.06 167.42 121.06"/></g>
    <path fill="#17171A" d="M102.05 178L96.18 178L96.18 165.32L84.10 145.26L90.95 145.26L96.80 155.59Q97.48 156.80 98.05 157.93Q98.62 159.06 99.15 160.42Q99.70 159.02 100.26 157.88Q100.82 156.75 101.46 155.59L107.19 145.26L114 145.26L102.05 165.32M127.22 178.51Q123.63 178.51 121 176.91Q118.36 175.32 116.92 172.47Q115.48 169.63 115.48 165.85Q115.48 162.03 116.92 159.16Q118.36 156.29 121 154.71Q123.63 153.13 127.22 153.13Q130.80 153.13 133.43 154.71Q136.07 156.29 137.52 159.16Q138.97 162.03 138.97 165.85Q138.97 169.63 137.52 172.47Q136.07 175.32 133.43 176.91Q130.80 178.51 127.22 178.51M127.22 173.87Q129.22 173.87 130.53 172.79Q131.85 171.72 132.51 169.89Q133.17 168.07 133.17 165.83Q133.17 163.56 132.51 161.74Q131.85 159.92 130.53 158.84Q129.22 157.76 127.22 157.76Q125.24 157.76 123.92 158.84Q122.60 159.92 121.95 161.74Q121.31 163.56 121.31 165.83Q121.31 168.07 121.95 169.89Q122.60 171.72 123.92 172.79Q125.24 173.87 127.22 173.87M150.80 178.31Q147 178.31 144.69 175.89Q142.38 173.47 142.38 169.06L142.38 153.43L148.10 153.43L148.10 168.18Q148.10 170.64 149.38 172.05Q150.67 173.45 152.91 173.45Q155.19 173.45 156.67 171.98Q158.14 170.51 158.14 167.83L158.14 153.43L163.87 153.43L163.87 178L158.45 178L158.40 173.08Q156.20 178.31 150.80 178.31M174.08 178L168.36 178L168.36 153.43L173.90 153.43L173.90 157.54L174.16 157.54Q174.82 155.41 176.47 154.26Q178.12 153.10 180.23 153.10Q181.33 153.10 182.32 153.26L182.32 158.51Q181.96 158.42 181.17 158.32Q180.38 158.22 179.61 158.22Q177.22 158.22 175.65 159.71Q174.08 161.19 174.08 163.54M200.13 187.18L194.41 187.18L194.41 153.43L200 153.43L200 157.50L200.37 157.50Q200.79 156.64 201.60 155.62Q202.41 154.60 203.82 153.86Q205.23 153.13 207.40 153.13Q210.23 153.13 212.53 154.58Q214.83 156.03 216.18 158.85Q217.53 161.67 217.53 165.76Q217.53 169.80 216.20 172.64Q214.87 175.47 212.59 176.96Q210.30 178.44 207.38 178.44Q205.27 178.44 203.87 177.73Q202.48 177.01 201.64 176Q200.81 174.99 200.37 174.11L200.13 174.11L200.13 187.18M205.84 173.74Q208.70 173.74 210.18 171.46Q211.66 169.19 211.66 165.74Q211.66 162.31 210.20 160.07Q208.74 157.83 205.84 157.83Q203.01 157.83 201.51 159.99Q200.02 162.16 200.02 165.74Q200.02 169.32 201.53 171.53Q203.05 173.74 205.84 173.74M226.63 178L220.92 178L220.92 153.43L226.46 153.43L226.46 157.54L226.72 157.54Q227.38 155.41 229.03 154.26Q230.68 153.10 232.79 153.10Q233.88 153.10 234.87 153.26L234.87 158.51Q234.52 158.42 233.73 158.32Q232.94 158.22 232.17 158.22Q229.78 158.22 228.20 159.71Q226.63 161.19 226.63 163.54M247.87 178.51Q244.28 178.51 241.65 176.91Q239.01 175.32 237.57 172.47Q236.13 169.63 236.13 165.85Q236.13 162.03 237.57 159.16Q239.01 156.29 241.65 154.71Q244.28 153.13 247.87 153.13Q251.45 153.13 254.08 154.71Q256.72 156.29 258.17 159.16Q259.62 162.03 259.62 165.85Q259.62 169.63 258.17 172.47Q256.72 175.32 254.08 176.91Q251.45 178.51 247.87 178.51M247.87 173.87Q249.87 173.87 251.18 172.79Q252.50 171.72 253.16 169.89Q253.82 168.07 253.82 165.83Q253.82 163.56 253.16 161.74Q252.50 159.92 251.18 158.84Q249.87 157.76 247.87 157.76Q245.89 157.76 244.57 158.84Q243.25 159.92 242.60 161.74Q241.96 163.56 241.96 165.83Q241.96 168.07 242.60 169.89Q243.25 171.72 244.57 172.79Q245.89 173.87 247.87 173.87M272.09 178.44Q269.19 178.44 266.89 176.96Q264.59 175.47 263.28 172.64Q261.96 169.80 261.96 165.76Q261.96 161.67 263.30 158.85Q264.64 156.03 266.93 154.58Q269.23 153.13 272.07 153.13Q274.26 153.13 275.66 153.86Q277.05 154.60 277.87 155.62Q278.68 156.64 279.12 157.50L279.36 157.50L279.36 145.26L285.07 145.26L285.07 178L279.47 178L279.47 174.11L279.12 174.11Q278.66 174.99 277.82 176Q276.99 177.01 275.59 177.73Q274.20 178.44 272.09 178.44M273.65 173.74Q276.44 173.74 277.95 171.53Q279.47 169.32 279.47 165.74Q279.47 162.16 277.96 159.99Q276.46 157.83 273.65 157.83Q270.75 157.83 269.27 160.07Q267.80 162.31 267.80 165.74Q267.80 169.19 269.29 171.46Q270.77 173.74 273.65 173.74M297.96 178.31Q294.15 178.31 291.85 175.89Q289.54 173.47 289.54 169.06L289.54 153.43L295.25 153.43L295.25 168.18Q295.25 170.64 296.54 172.05Q297.82 173.45 300.07 173.45Q302.35 173.45 303.82 171.98Q305.29 170.51 305.29 167.83L305.29 153.43L311.03 153.43L311.03 178L305.60 178L305.56 173.08Q303.36 178.31 297.96 178.31M326.18 178.51Q322.59 178.51 319.96 176.91Q317.32 175.32 315.88 172.47Q314.44 169.63 314.44 165.85Q314.44 162.03 315.88 159.16Q317.32 156.29 319.96 154.71Q322.59 153.13 326.18 153.13Q330.28 153.13 333.13 155.18Q335.98 157.24 336.77 160.84L331.43 161.96Q330.97 160.05 329.63 158.91Q328.29 157.76 326.22 157.76Q323.23 157.76 321.75 160.07Q320.27 162.38 320.27 165.83Q320.27 168.09 320.92 169.91Q321.58 171.74 322.90 172.80Q324.22 173.87 326.22 173.87Q328.33 173.87 329.68 172.67Q331.03 171.47 331.49 169.50L336.83 170.62Q336.04 174.29 333.19 176.40Q330.33 178.51 326.18 178.51M346.77 153.43L351.52 153.43L351.52 157.92L346.77 157.92L346.77 171.08Q346.77 172.42 347.33 173.05Q347.89 173.67 349.21 173.67Q349.61 173.67 350.24 173.57Q350.88 173.47 351.30 173.39L352.20 177.80Q351.25 178.09 350.26 178.21Q349.28 178.33 348.38 178.33Q344.84 178.33 342.95 176.57Q341.06 174.81 341.06 171.56L341.06 157.92L337.56 157.92L337.56 153.43L341.06 153.43L341.06 147.59L346.77 147.59M358.14 186.42L354.14 186.42L356.07 173.17L361.96 173.17"/>
    <path fill="#17171A" d="M377.23 172.94Q377.53 173.23 377.82 173.68Q378.11 174.13 378.76 175.05Q379.39 175.97 380.02 176.34Q380.65 176.69 381.35 176.69Q382.34 176.69 383.13 176.36Q383.92 176.02 384.37 175.38Q384.82 174.74 384.82 173.81Q384.82 173.14 384.57 172.49Q384.32 171.84 383.67 171.07Q383.02 170.31 381.78 169.25Q380.54 168.21 379.82 167.31Q379.10 166.41 378.81 165.53Q378.52 164.66 378.52 163.74Q378.52 162 379.37 160.61Q380.23 159.21 381.86 158.40Q383.49 157.59 385.78 157.59Q387.54 157.59 388.63 158.01Q389.72 158.43 390.25 159.13Q390.78 159.84 390.78 160.74Q390.78 161.37 390.49 161.86Q390.19 162.34 389.67 162.61Q389.14 162.88 388.42 162.88Q388.19 162.63 387.87 162.27Q387.54 161.91 386.95 161.10Q386.37 160.31 385.73 159.91Q385.09 159.50 384.46 159.50Q383.20 159.50 382.48 160.15Q381.76 160.79 381.76 161.94Q381.76 162.45 382.02 163.06Q382.27 163.67 382.94 164.44Q383.60 165.22 384.84 166.34Q386.08 167.43 386.79 168.41Q387.49 169.41 387.80 170.31Q388.10 171.21 388.10 172.10Q388.10 173.93 387.07 175.38Q386.03 176.83 384.25 177.66Q382.48 178.50 380.16 178.50Q378.25 178.50 377.03 178.02Q375.82 177.55 375.25 176.80Q374.69 176.04 374.69 175.16Q374.69 174.51 374.98 174.01Q375.28 173.50 375.85 173.22Q376.42 172.94 377.23 172.94M396.92 172.96L395.39 178L391.23 178L399.71 149.92Q399.31 149.56 398.85 149.21Q398.38 148.86 397.84 148.55Q397.30 148.23 396.65 147.96L396.90 147.09L404.46 145.78L405.13 145.78L397.98 167.67L397.89 167.51Q399.08 165.22 400.34 163.39Q401.60 161.55 402.93 160.27Q404.26 158.99 405.65 158.31Q407.05 157.64 408.49 157.64Q410.58 157.64 411.43 158.56Q412.29 159.48 412.29 160.92Q412.29 161.69 412.04 162.69Q411.79 163.69 411.30 164.95L406.87 176.34L406.53 175.16Q407.41 175.19 408.40 174.87Q409.39 174.56 410.46 173.93Q411.52 173.30 412.65 172.38L413.46 173.30Q411.68 175.23 410.14 176.38Q408.60 177.53 407.27 178.01Q405.94 178.50 404.71 178.50Q403.11 178.50 402.68 177.96Q402.25 177.41 402.82 176.02L407.38 164.39Q407.65 163.67 407.80 163.16Q407.95 162.66 407.95 162.25Q407.95 161.69 407.58 161.35Q407.20 161.01 406.30 161.01Q405.22 161.01 403.92 161.89Q402.61 162.77 401.32 164.37Q400.03 165.96 398.88 168.16Q397.73 170.35 396.92 172.96M426.78 176.58L429.30 169.11L429.68 169.11Q427.86 171.93 426.40 173.75Q424.93 175.57 423.73 176.59Q422.53 177.62 421.48 178.03Q420.43 178.45 419.44 178.45Q418.09 178.45 417.08 177.94Q416.07 177.44 415.50 176.40Q414.92 175.37 414.92 173.72Q414.92 171.90 415.61 169.75Q416.29 167.60 417.52 165.51Q418.75 163.42 420.39 161.69Q422.03 159.96 423.99 158.91Q425.95 157.86 428.06 157.86Q429.61 157.86 430.65 158.50Q431.68 159.15 432.45 160.47L431.59 161.80Q431.28 161.01 430.58 160.51Q429.88 160 428.80 160Q427.27 160 425.87 160.98Q424.46 161.96 423.27 163.53Q422.08 165.11 421.20 166.92Q420.32 168.73 419.83 170.41Q419.33 172.08 419.33 173.28Q419.33 174.26 419.86 174.75Q420.39 175.23 421.29 175.23Q422.10 175.23 423.26 174.53Q424.42 173.84 425.65 172.61Q426.89 171.38 427.97 169.74Q429.05 168.10 429.70 166.23L432.13 159.21L434.81 158.09L436.66 158.09L430.65 176.38L430.02 175.16Q430.87 175.25 431.91 174.96Q432.94 174.67 434.07 174.02Q435.19 173.37 436.34 172.35L437.11 173.28Q434.47 176.16 432.45 177.32Q430.42 178.50 428.74 178.50Q427.45 178.50 426.95 178.01Q426.44 177.53 426.78 176.58M446.33 169.54L445.84 171.43Q445.59 172.33 445.52 172.90Q445.45 173.48 445.45 173.84Q445.45 175.05 446.13 175.86Q446.80 176.67 448.36 176.67Q449.41 176.67 450.51 175.97Q451.60 175.28 452.60 174.06Q453.60 172.85 454.38 171.28Q455.15 169.72 455.61 167.95Q456.07 166.19 456.07 164.39Q456.07 162.68 455.49 161.86Q454.90 161.03 453.60 161.03Q452.77 161.03 451.88 161.54Q450.99 162.05 450.12 162.90Q449.26 163.76 448.50 164.86Q447.75 165.96 447.19 167.17Q446.62 168.37 446.33 169.54M442.73 176L444.76 176L441.63 187.04L445.32 188.13L444.94 189.18L433.87 189.18L434.23 188.15L437.49 187.04L444.85 160.99Q444.82 160.99 444.77 160.99Q444.71 160.99 444.67 160.99Q443.72 160.99 442.90 161.29Q442.08 161.60 441.30 162.38Q440.53 163.17 439.72 164.66L438.88 164.32Q439.78 161.73 440.93 160.26Q442.08 158.78 443.44 158.19Q444.80 157.59 446.31 157.59Q447.07 157.59 447.75 157.69Q448.42 157.80 449.17 157.97L446.89 166.12L446.76 165.72Q448.24 162.86 449.74 161.07Q451.24 159.28 452.71 158.44Q454.18 157.59 455.60 157.59Q458.12 157.59 459.38 159.25Q460.64 160.90 460.64 163.26Q460.64 165.56 460.03 167.76Q459.43 169.97 458.32 171.90Q457.22 173.84 455.70 175.32Q454.18 176.81 452.32 177.65Q450.45 178.50 448.36 178.50Q446.53 178.50 444.96 177.88Q443.38 177.26 442.73 176M474.01 159.48Q472.77 159.48 471.75 160.18Q470.72 160.88 469.90 162.07Q469.08 163.26 468.52 164.75Q467.95 166.23 467.65 167.83Q467.35 169.43 467.35 170.94Q467.35 173.34 468.29 174.34Q469.24 175.34 470.92 175.34Q472.05 175.34 473.03 174.97Q474.01 174.60 474.90 173.71Q475.78 172.82 476.64 171.23L478.12 171.23Q476.91 174.02 475.62 175.60Q474.32 177.19 472.83 177.84Q471.33 178.50 469.44 178.50Q467.41 178.50 465.96 177.74Q464.51 176.99 463.76 175.54Q463 174.09 463 171.97Q463 169.54 463.60 167.37Q464.20 165.20 465.31 163.42Q466.42 161.64 467.89 160.34Q469.35 159.03 471.09 158.31Q472.84 157.59 474.73 157.59Q476.57 157.59 477.72 158.19Q478.87 158.78 479.40 159.75Q479.92 160.72 479.92 161.87Q479.92 162.90 479.52 163.91Q479.11 164.93 478.46 165.60Q477.04 166.14 475.57 166.65Q474.10 167.16 472.60 167.62Q471.10 168.08 469.61 168.50Q468.11 168.93 466.65 169.29L466.72 167.49Q469.10 166.88 470.77 166.30Q472.43 165.72 473.49 165.16Q474.55 164.61 475.12 164.05Q475.69 163.49 475.91 162.89Q476.12 162.29 476.12 161.64Q476.12 160.99 475.89 160.51Q475.65 160.02 475.18 159.75Q474.70 159.48 474.01 159.48M498.55 160.31L497.72 161.66Q497.41 160.85 496.70 160.35Q495.99 159.84 494.93 159.84Q493.36 159.84 491.93 160.83Q490.50 161.82 489.31 163.41Q488.11 165 487.23 166.82Q486.34 168.64 485.84 170.34Q485.35 172.04 485.35 173.23Q485.35 174.24 485.88 174.74Q486.40 175.23 487.30 175.23Q488 175.23 488.95 174.75Q489.89 174.26 490.93 173.39Q491.96 172.51 492.97 171.31Q493.99 170.10 494.82 168.64Q495.65 167.18 496.17 165.56L501.05 149.99Q500.67 149.58 500.20 149.22Q499.72 148.86 499.18 148.55Q498.64 148.23 498.01 147.96L498.28 147.09L505.82 145.78L506.50 145.78L496.78 176.38L496.12 175.16Q497 175.25 498.04 174.96Q499.07 174.67 500.20 174.02Q501.32 173.37 502.47 172.35L503.23 173.28Q500.60 176.16 498.58 177.32Q496.55 178.50 494.86 178.50Q493.58 178.50 493.06 178.01Q492.55 177.53 492.88 176.58L495.40 169.11L495.79 169.11Q493.94 171.93 492.47 173.75Q490.99 175.57 489.79 176.59Q488.59 177.62 487.53 178.03Q486.47 178.45 485.46 178.45Q484.13 178.45 483.11 177.94Q482.08 177.44 481.51 176.38Q480.94 175.32 480.94 173.68Q480.94 171.84 481.62 169.68Q482.31 167.51 483.55 165.40Q484.78 163.28 486.45 161.54Q488.11 159.80 490.07 158.74Q492.03 157.68 494.17 157.68Q495.74 157.68 496.78 158.34Q497.81 158.99 498.55 160.31"/>
    <path fill="#17171A" d="M523.23 153.43L527.97 153.43L527.97 157.92L523.23 157.92L523.23 171.08Q523.23 172.42 523.79 173.05Q524.35 173.67 525.67 173.67Q526.06 173.67 526.70 173.57Q527.34 173.47 527.75 173.39L528.66 177.80Q527.71 178.09 526.72 178.21Q525.73 178.33 524.83 178.33Q521.29 178.33 519.41 176.57Q517.52 174.81 517.52 171.56L517.52 157.92L514.02 157.92L514.02 153.43L517.52 153.43L517.52 147.59L523.23 147.59M541.58 178.51Q538 178.51 535.36 176.91Q532.73 175.32 531.29 172.47Q529.85 169.63 529.85 165.85Q529.85 162.03 531.29 159.16Q532.73 156.29 535.36 154.71Q538 153.13 541.58 153.13Q545.16 153.13 547.80 154.71Q550.44 156.29 551.89 159.16Q553.34 162.03 553.34 165.85Q553.34 169.63 551.89 172.47Q550.44 175.32 547.80 176.91Q545.16 178.51 541.58 178.51M541.58 173.87Q543.58 173.87 544.90 172.79Q546.22 171.72 546.88 169.89Q547.54 168.07 547.54 165.83Q547.54 163.56 546.88 161.74Q546.22 159.92 544.90 158.84Q543.58 157.76 541.58 157.76Q539.61 157.76 538.29 158.84Q536.97 159.92 536.32 161.74Q535.67 163.56 535.67 165.83Q535.67 168.07 536.32 169.89Q536.97 171.72 538.29 172.79Q539.61 173.87 541.58 173.87M577.37 178.51Q573.65 178.51 570.99 176.95Q568.32 175.39 566.88 172.55Q565.44 169.72 565.44 165.87Q565.44 162.09 566.85 159.22Q568.27 156.36 570.88 154.74Q573.48 153.13 576.99 153.13Q579.98 153.13 582.54 154.43Q585.10 155.74 586.66 158.48Q588.22 161.21 588.22 165.52L588.22 167.32L571.13 167.32Q571.24 170.60 572.96 172.31Q574.69 174.02 577.43 174.02Q579.32 174.02 580.68 173.21Q582.03 172.40 582.60 170.84L587.85 171.91Q586.97 174.88 584.21 176.69Q581.46 178.51 577.37 178.51M571.15 163.43L582.66 163.43Q582.40 160.80 580.98 159.20Q579.57 157.61 577.02 157.61Q574.40 157.61 572.87 159.29Q571.35 160.97 571.15 163.43M604.91 178L598.51 178L589.37 153.43L595.48 153.43L599.96 166.79Q600.51 168.42 600.94 170.07Q601.37 171.72 601.79 173.39Q602.18 171.72 602.60 170.07Q603.02 168.42 603.57 166.79L608.03 153.43L614.09 153.43M627.24 178.51Q623.52 178.51 620.86 176.95Q618.19 175.39 616.75 172.55Q615.31 169.72 615.31 165.87Q615.31 162.09 616.72 159.22Q618.14 156.36 620.75 154.74Q623.35 153.13 626.86 153.13Q629.85 153.13 632.41 154.43Q634.97 155.74 636.53 158.48Q638.09 161.21 638.09 165.52L638.09 167.32L621 167.32Q621.11 170.60 622.83 172.31Q624.56 174.02 627.30 174.02Q629.19 174.02 630.55 173.21Q631.90 172.40 632.47 170.84L637.72 171.91Q636.84 174.88 634.08 176.69Q631.33 178.51 627.24 178.51M621.02 163.43L632.53 163.43Q632.27 160.80 630.85 159.20Q629.44 157.61 626.89 157.61Q624.27 157.61 622.74 159.29Q621.22 160.97 621.02 163.43M647.13 178L641.42 178L641.42 153.43L646.95 153.43L646.95 157.54L647.22 157.54Q647.88 155.41 649.53 154.26Q651.17 153.10 653.28 153.10Q654.38 153.10 655.37 153.26L655.37 158.51Q655.02 158.42 654.23 158.32Q653.44 158.22 652.67 158.22Q650.27 158.22 648.70 159.71Q647.13 161.19 647.13 163.54M657.46 186.77L658.81 182.31L659.49 182.48Q661.42 183.01 662.72 182.38Q664.01 181.76 664.45 179.65L664.80 178.09L655.53 153.43L661.64 153.43L666.12 166.79Q666.65 168.40 667.04 169.99Q667.44 171.58 667.79 173.19Q668.21 171.56 668.64 169.97Q669.07 168.38 669.62 166.79L674.25 153.43L680.29 153.43L669.75 181.16Q668.63 184.11 666.63 185.73Q664.63 187.36 661.29 187.36Q660.08 187.36 659.06 187.18Q658.04 187.01 657.46 186.77M703.03 178.51Q699.45 178.51 696.81 176.91Q694.17 175.32 692.73 172.47Q691.29 169.63 691.29 165.85Q691.29 162.03 692.73 159.16Q694.17 156.29 696.81 154.71Q699.45 153.13 703.03 153.13Q707.14 153.13 709.98 155.18Q712.83 157.24 713.62 160.84L708.28 161.96Q707.82 160.05 706.48 158.91Q705.14 157.76 703.07 157.76Q700.08 157.76 698.60 160.07Q697.12 162.38 697.12 165.83Q697.12 168.09 697.78 169.91Q698.44 171.74 699.75 172.80Q701.07 173.87 703.07 173.87Q705.18 173.87 706.53 172.67Q707.88 171.47 708.35 169.50L713.68 170.62Q712.89 174.29 710.04 176.40Q707.18 178.51 703.03 178.51M725.43 178.31Q721.62 178.31 719.32 175.89Q717.01 173.47 717.01 169.06L717.01 153.43L722.72 153.43L722.72 168.18Q722.72 170.64 724.01 172.05Q725.29 173.45 727.53 173.45Q729.82 173.45 731.29 171.98Q732.76 170.51 732.76 167.83L732.76 153.43L738.50 153.43L738.50 178L733.07 178L733.03 173.08Q730.83 178.31 725.43 178.31M752.28 178.51Q748.04 178.51 745.28 176.69Q742.53 174.88 741.89 171.54L747.23 170.53Q748.20 174.13 752.39 174.13Q754.50 174.13 755.74 173.29Q756.99 172.44 756.99 171.19Q756.99 169.10 753.67 168.38L749.47 167.48Q742.57 165.98 742.57 160.60Q742.57 158.31 743.82 156.64Q745.08 154.97 747.31 154.05Q749.54 153.13 752.48 153.13Q756.66 153.13 759.08 154.86Q761.51 156.60 762.26 159.46L757.16 160.47Q756.72 159.19 755.62 158.29Q754.52 157.39 752.55 157.39Q750.74 157.39 749.51 158.19Q748.28 158.99 748.28 160.25Q748.28 161.32 749.09 162.01Q749.89 162.71 751.78 163.12L755.95 164Q762.83 165.48 762.83 170.64Q762.83 172.97 761.49 174.74Q760.15 176.51 757.77 177.51Q755.38 178.51 752.28 178.51M772.75 153.43L777.49 153.43L777.49 157.92L772.75 157.92L772.75 171.08Q772.75 172.42 773.31 173.05Q773.87 173.67 775.19 173.67Q775.58 173.67 776.22 173.57Q776.86 173.47 777.27 173.39L778.17 177.80Q777.23 178.09 776.24 178.21Q775.25 178.33 774.35 178.33Q770.81 178.33 768.92 176.57Q767.03 174.81 767.03 171.56L767.03 157.92L763.54 157.92L763.54 153.43L767.03 153.43L767.03 147.59L772.75 147.59M791.10 178.51Q787.52 178.51 784.88 176.91Q782.25 175.32 780.81 172.47Q779.37 169.63 779.37 165.85Q779.37 162.03 780.81 159.16Q782.25 156.29 784.88 154.71Q787.52 153.13 791.10 153.13Q794.68 153.13 797.32 154.71Q799.96 156.29 801.41 159.16Q802.86 162.03 802.86 165.85Q802.86 169.63 801.41 172.47Q799.96 175.32 797.32 176.91Q794.68 178.51 791.10 178.51M791.10 173.87Q793.10 173.87 794.42 172.79Q795.74 171.72 796.40 169.89Q797.06 168.07 797.06 165.83Q797.06 163.56 796.40 161.74Q795.74 159.92 794.42 158.84Q793.10 157.76 791.10 157.76Q789.12 157.76 787.80 158.84Q786.49 159.92 785.84 161.74Q785.19 163.56 785.19 165.83Q785.19 168.07 785.84 169.89Q786.49 171.72 787.80 172.79Q789.12 173.87 791.10 173.87M811.98 178L806.27 178L806.27 153.43L811.63 153.43L811.81 158.11Q812.77 155.50 814.67 154.27Q816.57 153.04 818.77 153.04Q823.47 153.04 825.08 158.38Q826.07 155.72 828.20 154.38Q830.33 153.04 832.92 153.04Q836.24 153.04 838.48 155.19Q840.72 157.35 840.72 161.43L840.72 178L835.01 178L835.01 162.31Q835.01 160.03 833.76 158.97Q832.50 157.92 830.75 157.92Q828.66 157.92 827.47 159.21Q826.29 160.51 826.29 162.58L826.29 178L820.70 178L820.70 162.05Q820.70 160.18 819.54 159.05Q818.38 157.92 816.55 157.92Q814.66 157.92 813.32 159.20Q811.98 160.49 811.98 162.95M856.07 178.51Q852.35 178.51 849.68 176.95Q847.01 175.39 845.57 172.55Q844.13 169.72 844.13 165.87Q844.13 162.09 845.55 159.22Q846.97 156.36 849.57 154.74Q852.18 153.13 855.69 153.13Q858.68 153.13 861.24 154.43Q863.80 155.74 865.36 158.48Q866.92 161.21 866.92 165.52L866.92 167.32L849.83 167.32Q849.94 170.60 851.66 172.31Q853.39 174.02 856.13 174.02Q858.02 174.02 859.37 173.21Q860.72 172.40 861.30 170.84L866.55 171.91Q865.67 174.88 862.91 176.69Q860.15 178.51 856.07 178.51M849.85 163.43L861.36 163.43Q861.10 160.80 859.68 159.20Q858.26 157.61 855.71 157.61Q853.10 157.61 851.57 159.29Q850.05 160.97 849.85 163.43M875.96 178L870.25 178L870.25 153.43L875.78 153.43L875.78 157.54L876.05 157.54Q876.71 155.41 878.35 154.26Q880 153.10 882.11 153.10Q883.21 153.10 884.20 153.26L884.20 158.51Q883.85 158.42 883.06 158.32Q882.26 158.22 881.50 158.22Q879.10 158.22 877.53 159.71Q875.96 161.19 875.96 163.54M890.66 178.37Q889.19 178.37 888.17 177.36Q887.15 176.35 887.15 174.86Q887.15 173.39 888.17 172.38Q889.19 171.36 890.66 171.36Q892.16 171.36 893.18 172.38Q894.20 173.39 894.20 174.86Q894.20 176.35 893.18 177.36Q892.16 178.37 890.66 178.37"/>
    <path fill="#6E6E73" d="M84.98 218L83.41 218L87.63 206.36L89.35 206.36L93.63 218L92.07 218L90.91 214.75L86.11 214.75L84.98 218M87.38 211.09L86.56 213.45L90.45 213.45L89.60 211.09Q89.39 210.51 89.13 209.66Q88.86 208.81 88.48 207.55Q88.12 208.84 87.84 209.70Q87.57 210.55 87.38 211.09M96.68 212.77L96.68 218L95.27 218L95.27 209.27L96.63 209.27L96.63 210.88Q97.05 209.95 97.74 209.55Q98.42 209.16 99.30 209.16Q100.63 209.16 101.45 209.98Q102.26 210.80 102.26 212.45L102.26 218L100.85 218L100.85 212.57Q100.85 211.56 100.32 210.99Q99.80 210.42 98.88 210.42Q97.94 210.42 97.31 211.04Q96.68 211.65 96.68 212.77M112.90 218.19Q111.63 218.19 110.71 217.63Q109.80 217.06 109.30 216.05Q108.80 215.05 108.80 213.70Q108.80 212.36 109.29 211.34Q109.77 210.31 110.66 209.73Q111.55 209.16 112.73 209.16Q113.43 209.16 114.11 209.39Q114.78 209.62 115.33 210.13Q115.88 210.64 116.21 211.48Q116.54 212.31 116.54 213.52L116.54 214.11L110.23 214.11Q110.28 215.48 111.01 216.21Q111.74 216.94 112.91 216.94Q113.68 216.94 114.24 216.60Q114.80 216.26 115.04 215.59L116.40 215.97Q116.09 216.96 115.17 217.57Q114.24 218.19 112.90 218.19M110.23 212.92L115.11 212.92Q115.01 211.80 114.41 211.11Q113.81 210.41 112.73 210.41Q111.98 210.41 111.44 210.76Q110.90 211.11 110.59 211.68Q110.27 212.25 110.23 212.92M119.96 218L118.55 218L118.55 209.27L119.92 209.27L119.93 210.87Q120.25 209.98 120.93 209.55Q121.60 209.11 122.38 209.11Q123.23 209.11 123.80 209.60Q124.37 210.09 124.60 210.89Q124.91 210.06 125.66 209.59Q126.41 209.11 127.35 209.11Q128.11 209.11 128.73 209.44Q129.36 209.77 129.73 210.43Q130.10 211.09 130.10 212.11L130.10 218L128.70 218L128.70 212.15Q128.70 211.20 128.16 210.80Q127.63 210.39 126.93 210.39Q126.05 210.39 125.54 210.93Q125.03 211.47 125.03 212.30L125.03 218L123.63 218L123.63 212.01Q123.63 211.28 123.14 210.84Q122.66 210.39 121.91 210.39Q121.15 210.39 120.55 210.92Q119.96 211.45 119.96 212.50M136.63 218.19Q135.80 218.19 135.29 217.90Q134.78 217.62 134.51 217.25Q134.23 216.89 134.09 216.65L133.93 216.65L133.93 218L132.57 218L132.57 206.36L133.98 206.36L133.98 210.66L134.09 210.66Q134.23 210.43 134.50 210.07Q134.77 209.72 135.27 209.44Q135.77 209.16 136.62 209.16Q137.71 209.16 138.54 209.70Q139.38 210.25 139.85 211.26Q140.32 212.27 140.32 213.66Q140.32 215.05 139.85 216.06Q139.38 217.08 138.55 217.63Q137.72 218.19 136.63 218.19M136.41 216.93Q137.23 216.93 137.79 216.49Q138.34 216.05 138.61 215.30Q138.89 214.55 138.89 213.64Q138.89 212.73 138.62 212Q138.34 211.27 137.79 210.84Q137.24 210.41 136.41 210.41Q135.21 210.41 134.59 211.30Q133.96 212.20 133.96 213.64Q133.96 215.10 134.59 216.02Q135.23 216.93 136.41 216.93M146.04 218.19Q144.77 218.19 143.86 217.63Q142.94 217.06 142.44 216.05Q141.95 215.05 141.95 213.70Q141.95 212.36 142.43 211.34Q142.91 210.31 143.80 209.73Q144.69 209.16 145.88 209.16Q146.57 209.16 147.25 209.39Q147.92 209.62 148.47 210.13Q149.02 210.64 149.35 211.48Q149.68 212.31 149.68 213.52L149.68 214.11L143.37 214.11Q143.42 215.48 144.15 216.21Q144.88 216.94 146.05 216.94Q146.82 216.94 147.38 216.60Q147.94 216.26 148.18 215.59L149.54 215.97Q149.23 216.96 148.31 217.57Q147.38 218.19 146.04 218.19M143.38 212.92L148.25 212.92Q148.15 211.80 147.55 211.11Q146.95 210.41 145.88 210.41Q145.13 210.41 144.58 210.76Q144.04 211.11 143.73 211.68Q143.41 212.25 143.38 212.92M154.97 218.19Q153.88 218.19 153.05 217.63Q152.21 217.08 151.74 216.06Q151.27 215.05 151.27 213.66Q151.27 212.27 151.75 211.26Q152.22 210.25 153.05 209.70Q153.89 209.16 154.98 209.16Q155.83 209.16 156.33 209.44Q156.83 209.72 157.10 210.07Q157.37 210.43 157.51 210.66L157.62 210.66L157.62 206.36L159.02 206.36L159.02 218L157.66 218L157.66 216.65L157.51 216.65Q157.37 216.89 157.09 217.25Q156.81 217.62 156.31 217.90Q155.80 218.19 154.97 218.19M155.18 216.93Q156.37 216.93 157 216.02Q157.63 215.10 157.63 213.64Q157.63 212.20 157.01 211.30Q156.39 210.41 155.18 210.41Q154.35 210.41 153.80 210.84Q153.25 211.27 152.98 212Q152.70 212.73 152.70 213.64Q152.70 214.55 152.98 215.30Q153.26 216.05 153.81 216.49Q154.37 216.93 155.18 216.93M164.77 218.19Q163.68 218.19 162.84 217.63Q162.01 217.08 161.54 216.06Q161.07 215.05 161.07 213.66Q161.07 212.27 161.54 211.26Q162.02 210.25 162.85 209.70Q163.69 209.16 164.77 209.16Q165.63 209.16 166.13 209.44Q166.63 209.72 166.89 210.07Q167.16 210.43 167.30 210.66L167.41 210.66L167.41 206.36L168.82 206.36L168.82 218L167.46 218L167.46 216.65L167.30 216.65Q167.16 216.89 166.89 217.25Q166.61 217.62 166.11 217.90Q165.60 218.19 164.77 218.19M164.98 216.93Q166.16 216.93 166.80 216.02Q167.43 215.10 167.43 213.64Q167.43 212.20 166.81 211.30Q166.19 210.41 164.98 210.41Q164.15 210.41 163.60 210.84Q163.05 211.27 162.77 212Q162.50 212.73 162.50 213.64Q162.50 214.55 162.78 215.30Q163.05 216.05 163.61 216.49Q164.16 216.93 164.98 216.93M174.96 218.19Q173.70 218.19 172.78 217.63Q171.86 217.06 171.36 216.05Q170.87 215.05 170.87 213.70Q170.87 212.36 171.35 211.34Q171.84 210.31 172.72 209.73Q173.61 209.16 174.80 209.16Q175.49 209.16 176.17 209.39Q176.84 209.62 177.39 210.13Q177.95 210.64 178.27 211.48Q178.60 212.31 178.60 213.52L178.60 214.11L172.29 214.11Q172.34 215.48 173.07 216.21Q173.80 216.94 174.97 216.94Q175.74 216.94 176.30 216.60Q176.86 216.26 177.10 215.59L178.46 215.97Q178.16 216.96 177.23 217.57Q176.30 218.19 174.96 218.19M172.30 212.92L177.17 212.92Q177.07 211.80 176.47 211.11Q175.88 210.41 174.80 210.41Q174.05 210.41 173.50 210.76Q172.96 211.11 172.65 211.68Q172.34 212.25 172.30 212.92M183.89 218.19Q182.80 218.19 181.97 217.63Q181.13 217.08 180.66 216.06Q180.20 215.05 180.20 213.66Q180.20 212.27 180.67 211.26Q181.14 210.25 181.98 209.70Q182.81 209.16 183.90 209.16Q184.75 209.16 185.25 209.44Q185.75 209.72 186.02 210.07Q186.29 210.43 186.43 210.66L186.54 210.66L186.54 206.36L187.95 206.36L187.95 218L186.59 218L186.59 216.65L186.43 216.65Q186.29 216.89 186.01 217.25Q185.73 217.62 185.23 217.90Q184.73 218.19 183.89 218.19M184.10 216.93Q185.29 216.93 185.92 216.02Q186.55 215.10 186.55 213.64Q186.55 212.20 185.93 211.30Q185.31 210.41 184.10 210.41Q183.27 210.41 182.72 210.84Q182.17 211.27 181.90 212Q181.63 212.73 181.63 213.64Q181.63 214.55 181.90 215.30Q182.18 216.05 182.73 216.49Q183.29 216.93 184.10 216.93M197.36 218.20Q196.53 218.20 195.86 217.89Q195.18 217.58 194.78 216.98Q194.38 216.38 194.38 215.52Q194.38 214.77 194.68 214.30Q194.98 213.83 195.47 213.56Q195.97 213.29 196.57 213.16Q197.17 213.02 197.78 212.95Q198.56 212.84 199.05 212.79Q199.55 212.73 199.79 212.60Q200.02 212.47 200.02 212.15L200.02 212.10Q200.02 211.29 199.56 210.84Q199.10 210.39 198.20 210.39Q197.25 210.39 196.72 210.80Q196.19 211.21 195.98 211.67L194.63 211.23Q194.97 210.43 195.54 209.98Q196.11 209.53 196.80 209.34Q197.48 209.16 198.16 209.16Q198.59 209.16 199.15 209.26Q199.71 209.37 200.23 209.68Q200.75 209.99 201.09 210.61Q201.43 211.22 201.43 212.24L201.43 218L200.05 218L200.05 216.81L199.95 216.81Q199.80 217.12 199.48 217.44Q199.15 217.77 198.63 217.98Q198.10 218.20 197.36 218.20M197.60 216.96Q198.38 216.96 198.92 216.66Q199.46 216.35 199.74 215.86Q200.02 215.38 200.02 214.84L200.02 213.63Q199.94 213.73 199.65 213.82Q199.36 213.90 198.99 213.96Q198.62 214.02 198.27 214.07Q197.92 214.11 197.72 214.13Q197.21 214.20 196.77 214.35Q196.33 214.50 196.06 214.79Q195.80 215.09 195.80 215.59Q195.80 216.27 196.31 216.61Q196.82 216.96 197.60 216.96M207.44 221.45Q205.98 221.45 205.12 220.92Q204.25 220.39 203.84 219.67L204.98 218.94Q205.17 219.19 205.45 219.49Q205.73 219.80 206.20 220.01Q206.67 220.23 207.44 220.23Q208.48 220.23 209.16 219.73Q209.84 219.23 209.84 218.15L209.84 216.40L209.70 216.40Q209.55 216.65 209.29 216.99Q209.02 217.34 208.51 217.60Q208.01 217.86 207.16 217.86Q206.12 217.86 205.28 217.36Q204.45 216.87 203.96 215.91Q203.48 214.96 203.48 213.59Q203.48 212.24 203.95 211.25Q204.43 210.25 205.27 209.70Q206.11 209.16 207.20 209.16Q208.04 209.16 208.54 209.43Q209.05 209.71 209.32 210.07Q209.59 210.43 209.74 210.66L209.88 210.66L209.88 209.27L211.24 209.27L211.24 218.23Q211.24 219.35 210.73 220.07Q210.23 220.78 209.36 221.12Q208.50 221.45 207.44 221.45M207.40 216.61Q208.59 216.61 209.22 215.80Q209.85 214.99 209.85 213.56Q209.85 212.17 209.23 211.29Q208.61 210.41 207.40 210.41Q206.57 210.41 206.02 210.84Q205.46 211.27 205.18 211.98Q204.91 212.69 204.91 213.56Q204.91 214.91 205.54 215.76Q206.17 216.61 207.40 216.61M217.38 218.19Q216.12 218.19 215.20 217.63Q214.28 217.06 213.79 216.05Q213.29 215.05 213.29 213.70Q213.29 212.36 213.77 211.34Q214.26 210.31 215.14 209.73Q216.03 209.16 217.22 209.16Q217.91 209.16 218.59 209.39Q219.27 209.62 219.82 210.13Q220.37 210.64 220.70 211.48Q221.02 212.31 221.02 213.52L221.02 214.11L214.71 214.11Q214.77 215.48 215.50 216.21Q216.23 216.94 217.39 216.94Q218.16 216.94 218.72 216.60Q219.28 216.26 219.52 215.59L220.88 215.97Q220.58 216.96 219.65 217.57Q218.73 218.19 217.38 218.19M214.72 212.92L219.59 212.92Q219.49 211.80 218.89 211.11Q218.30 210.41 217.22 210.41Q216.47 210.41 215.93 210.76Q215.38 211.11 215.07 211.68Q214.76 212.25 214.72 212.92M224.45 212.77L224.45 218L223.04 218L223.04 209.27L224.39 209.27L224.40 210.88Q224.82 209.95 225.50 209.55Q226.19 209.16 227.07 209.16Q228.40 209.16 229.21 209.98Q230.02 210.80 230.02 212.45L230.02 218L228.62 218L228.62 212.57Q228.62 211.56 228.09 210.99Q227.56 210.42 226.65 210.42Q225.70 210.42 225.07 211.04Q224.45 211.65 224.45 212.77M234.13 209.27L235.93 209.27L235.93 210.47L234.13 210.47L234.13 215.73Q234.13 216.32 234.37 216.59Q234.61 216.86 235.16 216.86Q235.30 216.86 235.50 216.83Q235.71 216.80 235.88 216.77L236.17 217.95Q235.95 218.03 235.68 218.07Q235.40 218.11 235.13 218.11Q233.99 218.11 233.36 217.51Q232.73 216.91 232.73 215.84L232.73 210.47L231.41 210.47L231.41 209.27L232.73 209.27L232.73 207.19L234.13 207.19M242.09 221.16L242.45 219.95L242.59 219.98Q243.24 220.16 243.71 219.93Q244.18 219.71 244.50 218.77L244.75 218.05L241.41 209.27L242.95 209.27L244.81 214.45Q245.02 215.02 245.18 215.58Q245.34 216.14 245.48 216.69Q245.63 216.14 245.79 215.58Q245.95 215.02 246.16 214.45L248.03 209.27L249.56 209.27L245.73 219.30Q245.33 220.34 244.69 220.84Q244.05 221.33 243.12 221.33Q242.74 221.33 242.47 221.27Q242.20 221.22 242.09 221.16M254.77 218.19Q253.59 218.19 252.69 217.63Q251.80 217.06 251.30 216.05Q250.80 215.03 250.80 213.69Q250.80 212.32 251.30 211.30Q251.80 210.28 252.69 209.72Q253.59 209.16 254.77 209.16Q255.97 209.16 256.87 209.72Q257.77 210.28 258.27 211.30Q258.77 212.32 258.77 213.69Q258.77 215.03 258.27 216.05Q257.77 217.06 256.87 217.63Q255.97 218.19 254.77 218.19M254.77 216.93Q255.66 216.93 256.23 216.48Q256.80 216.02 257.07 215.29Q257.34 214.55 257.34 213.69Q257.34 212.82 257.07 212.07Q256.80 211.33 256.23 210.87Q255.66 210.41 254.77 210.41Q253.90 210.41 253.34 210.87Q252.77 211.33 252.50 212.07Q252.23 212.81 252.23 213.69Q252.23 214.55 252.50 215.29Q252.77 216.02 253.34 216.48Q253.90 216.93 254.77 216.93M263.77 218.11Q262.45 218.11 261.63 217.29Q260.81 216.47 260.81 214.81L260.81 209.27L262.22 209.27L262.22 214.70Q262.22 215.70 262.75 216.27Q263.28 216.84 264.20 216.84Q265.13 216.84 265.76 216.23Q266.39 215.62 266.39 214.50L266.39 209.27L267.80 209.27L267.80 218L266.45 218L266.45 216.37Q266.02 217.32 265.32 217.71Q264.63 218.11 263.77 218.11M271.68 218L270.27 218L270.27 209.27L271.63 209.27L271.63 210.61L271.73 210.61Q271.97 209.95 272.59 209.54Q273.21 209.14 273.99 209.14Q274.15 209.14 274.36 209.15Q274.58 209.16 274.70 209.16L274.70 210.58Q274.64 210.56 274.39 210.53Q274.14 210.50 273.86 210.50Q272.91 210.50 272.30 211.07Q271.68 211.65 271.68 212.53M284.35 218.19Q283.16 218.19 282.27 217.63Q281.38 217.06 280.88 216.05Q280.38 215.03 280.38 213.69Q280.38 212.32 280.88 211.30Q281.38 210.28 282.27 209.72Q283.16 209.16 284.35 209.16Q285.62 209.16 286.57 209.79Q287.53 210.43 287.89 211.57L286.54 211.95Q286.34 211.28 285.78 210.85Q285.21 210.41 284.35 210.41Q283.48 210.41 282.91 210.87Q282.35 211.33 282.08 212.07Q281.80 212.81 281.80 213.69Q281.80 214.55 282.08 215.29Q282.35 216.02 282.91 216.48Q283.48 216.93 284.35 216.93Q285.23 216.93 285.81 216.48Q286.38 216.03 286.58 215.32L287.92 215.70Q287.57 216.87 286.60 217.53Q285.63 218.19 284.35 218.19M292.90 218.11Q291.58 218.11 290.76 217.29Q289.94 216.47 289.94 214.81L289.94 209.27L291.34 209.27L291.34 214.70Q291.34 215.70 291.88 216.27Q292.41 216.84 293.32 216.84Q294.26 216.84 294.89 216.23Q295.52 215.62 295.52 214.50L295.52 209.27L296.93 209.27L296.93 218L295.57 218L295.57 216.37Q295.14 217.32 294.45 217.71Q293.76 218.11 292.90 218.11M302.37 218.19Q301.02 218.19 300.13 217.60Q299.24 217.02 299.01 215.88L300.34 215.56Q300.53 216.28 301.05 216.62Q301.57 216.95 302.35 216.95Q303.27 216.95 303.81 216.56Q304.35 216.17 304.35 215.63Q304.35 214.73 303.07 214.43L301.62 214.09Q299.27 213.53 299.27 211.70Q299.27 210.95 299.70 210.38Q300.12 209.80 300.85 209.48Q301.58 209.16 302.51 209.16Q303.86 209.16 304.61 209.75Q305.35 210.34 305.65 211.26L304.38 211.59Q304.20 211.12 303.78 210.73Q303.36 210.35 302.52 210.35Q301.73 210.35 301.21 210.71Q300.70 211.07 300.70 211.62Q300.70 212.10 301.05 212.39Q301.40 212.69 302.16 212.87L303.48 213.18Q304.67 213.46 305.24 214.05Q305.81 214.64 305.81 215.54Q305.81 216.30 305.38 216.90Q304.95 217.50 304.17 217.84Q303.39 218.19 302.37 218.19M309.48 209.27L311.28 209.27L311.28 210.47L309.48 210.47L309.48 215.73Q309.48 216.32 309.72 216.59Q309.96 216.86 310.52 216.86Q310.65 216.86 310.86 216.83Q311.06 216.80 311.23 216.77L311.52 217.95Q311.30 218.03 311.03 218.07Q310.75 218.11 310.48 218.11Q309.34 218.11 308.71 217.51Q308.08 216.91 308.08 215.84L308.08 210.47L306.77 210.47L306.77 209.27L308.08 209.27L308.08 207.19L309.48 207.19M316.63 218.19Q315.45 218.19 314.55 217.63Q313.66 217.06 313.16 216.05Q312.66 215.03 312.66 213.69Q312.66 212.32 313.16 211.30Q313.66 210.28 314.55 209.72Q315.45 209.16 316.63 209.16Q317.83 209.16 318.73 209.72Q319.63 210.28 320.13 211.30Q320.63 212.32 320.63 213.69Q320.63 215.03 320.13 216.05Q319.63 217.06 318.73 217.63Q317.83 218.19 316.63 218.19M316.63 216.93Q317.52 216.93 318.09 216.48Q318.66 216.02 318.93 215.29Q319.20 214.55 319.20 213.69Q319.20 212.82 318.93 212.07Q318.66 211.33 318.09 210.87Q317.52 210.41 316.63 210.41Q315.76 210.41 315.20 210.87Q314.63 211.33 314.36 212.07Q314.09 212.81 314.09 213.69Q314.09 214.55 314.36 215.29Q314.63 216.02 315.20 216.48Q315.76 216.93 316.63 216.93M324.08 218L322.67 218L322.67 209.27L324.04 209.27L324.05 210.87Q324.37 209.98 325.04 209.55Q325.72 209.11 326.49 209.11Q327.35 209.11 327.92 209.60Q328.48 210.09 328.72 210.89Q329.03 210.06 329.78 209.59Q330.52 209.11 331.47 209.11Q332.23 209.11 332.85 209.44Q333.48 209.77 333.85 210.43Q334.22 211.09 334.22 212.11L334.22 218L332.81 218L332.81 212.15Q332.81 211.20 332.28 210.80Q331.75 210.39 331.05 210.39Q330.16 210.39 329.66 210.93Q329.15 211.47 329.15 212.30L329.15 218L327.74 218L327.74 212.01Q327.74 211.28 327.26 210.84Q326.77 210.39 326.03 210.39Q325.27 210.39 324.67 210.92Q324.08 211.45 324.08 212.50M340.36 218.19Q339.09 218.19 338.18 217.63Q337.26 217.06 336.76 216.05Q336.27 215.05 336.27 213.70Q336.27 212.36 336.75 211.34Q337.23 210.31 338.12 209.73Q339.01 209.16 340.20 209.16Q340.89 209.16 341.57 209.39Q342.24 209.62 342.79 210.13Q343.34 210.64 343.67 211.48Q344 212.31 344 213.52L344 214.11L337.69 214.11Q337.74 215.48 338.47 216.21Q339.20 216.94 340.37 216.94Q341.14 216.94 341.70 216.60Q342.26 216.26 342.50 215.59L343.86 215.97Q343.55 216.96 342.63 217.57Q341.70 218.19 340.36 218.19M337.70 212.92L342.57 212.92Q342.47 211.80 341.87 211.11Q341.27 210.41 340.20 210.41Q339.45 210.41 338.90 210.76Q338.36 211.11 338.05 211.68Q337.73 212.25 337.70 212.92M347.42 218L346.02 218L346.02 209.27L347.38 209.27L347.38 210.61L347.47 210.61Q347.71 209.95 348.33 209.54Q348.95 209.14 349.73 209.14Q349.89 209.14 350.11 209.15Q350.32 209.16 350.45 209.16L350.45 210.58Q350.38 210.56 350.13 210.53Q349.88 210.50 349.60 210.50Q348.66 210.50 348.04 211.07Q347.42 211.65 347.42 212.53M355.01 218.19Q353.66 218.19 352.77 217.60Q351.88 217.02 351.65 215.88L352.98 215.56Q353.17 216.28 353.69 216.62Q354.21 216.95 354.99 216.95Q355.91 216.95 356.45 216.56Q356.99 216.17 356.99 215.63Q356.99 214.73 355.71 214.43L354.26 214.09Q351.91 213.53 351.91 211.70Q351.91 210.95 352.34 210.38Q352.76 209.80 353.49 209.48Q354.22 209.16 355.15 209.16Q356.50 209.16 357.25 209.75Q357.99 210.34 358.29 211.26L357.02 211.59Q356.84 211.12 356.42 210.73Q356 210.35 355.16 210.35Q354.38 210.35 353.86 210.71Q353.34 211.07 353.34 211.62Q353.34 212.10 353.69 212.39Q354.04 212.69 354.80 212.87L356.13 213.18Q357.31 213.46 357.88 214.05Q358.45 214.64 358.45 215.54Q358.45 216.30 358.02 216.90Q357.59 217.50 356.81 217.84Q356.03 218.19 355.01 218.19M367.95 218.11Q366.63 218.11 365.80 217.29Q364.98 216.47 364.98 214.81L364.98 209.27L366.39 209.27L366.39 214.70Q366.39 215.70 366.92 216.27Q367.45 216.84 368.37 216.84Q369.30 216.84 369.93 216.23Q370.56 215.62 370.56 214.50L370.56 209.27L371.98 209.27L371.98 218L370.62 218L370.62 216.37Q370.19 217.32 369.50 217.71Q368.80 218.11 367.95 218.11M377.41 218.19Q376.07 218.19 375.18 217.60Q374.29 217.02 374.05 215.88L375.39 215.56Q375.58 216.28 376.10 216.62Q376.62 216.95 377.40 216.95Q378.31 216.95 378.86 216.56Q379.40 216.17 379.40 215.63Q379.40 214.73 378.12 214.43L376.66 214.09Q374.32 213.53 374.32 211.70Q374.32 210.95 374.74 210.38Q375.16 209.80 375.89 209.48Q376.63 209.16 377.55 209.16Q378.91 209.16 379.65 209.75Q380.40 210.34 380.70 211.26L379.42 211.59Q379.24 211.12 378.82 210.73Q378.41 210.35 377.56 210.35Q376.78 210.35 376.26 210.71Q375.74 211.07 375.74 211.62Q375.74 212.10 376.09 212.39Q376.45 212.69 377.21 212.87L378.53 213.18Q379.72 213.46 380.29 214.05Q380.86 214.64 380.86 215.54Q380.86 216.30 380.43 216.90Q379.99 217.50 379.21 217.84Q378.44 218.19 377.41 218.19M386.56 218.19Q385.30 218.19 384.38 217.63Q383.46 217.06 382.96 216.05Q382.47 215.05 382.47 213.70Q382.47 212.36 382.95 211.34Q383.44 210.31 384.32 209.73Q385.21 209.16 386.40 209.16Q387.09 209.16 387.77 209.39Q388.45 209.62 389 210.13Q389.55 210.64 389.88 211.48Q390.20 212.31 390.20 213.52L390.20 214.11L383.89 214.11Q383.95 215.48 384.68 216.21Q385.41 216.94 386.57 216.94Q387.34 216.94 387.90 216.60Q388.46 216.26 388.70 215.59L390.06 215.97Q389.76 216.96 388.83 217.57Q387.91 218.19 386.56 218.19M383.90 212.92L388.77 212.92Q388.67 211.80 388.07 211.11Q387.48 210.41 386.40 210.41Q385.65 210.41 385.11 210.76Q384.56 211.11 384.25 211.68Q383.94 212.25 383.90 212.92M398.36 209.27L400.16 209.27L400.16 210.47L398.36 210.47L398.36 215.73Q398.36 216.32 398.60 216.59Q398.84 216.86 399.39 216.86Q399.52 216.86 399.73 216.83Q399.94 216.80 400.11 216.77L400.40 217.95Q400.18 218.03 399.90 218.07Q399.63 218.11 399.35 218.11Q398.22 218.11 397.59 217.51Q396.95 216.91 396.95 215.84L396.95 210.47L395.64 210.47L395.64 209.27L396.95 209.27L396.95 207.19L398.36 207.19M405.51 218.19Q404.32 218.19 403.43 217.63Q402.53 217.06 402.03 216.05Q401.53 215.03 401.53 213.69Q401.53 212.32 402.03 211.30Q402.53 210.28 403.43 209.72Q404.32 209.16 405.51 209.16Q406.70 209.16 407.60 209.72Q408.50 210.28 409 211.30Q409.50 212.32 409.50 213.69Q409.50 215.03 409 216.05Q408.50 217.06 407.60 217.63Q406.70 218.19 405.51 218.19M405.51 216.93Q406.39 216.93 406.96 216.48Q407.53 216.02 407.80 215.29Q408.08 214.55 408.08 213.69Q408.08 212.82 407.80 212.07Q407.53 211.33 406.96 210.87Q406.39 210.41 405.51 210.41Q404.63 210.41 404.07 210.87Q403.51 211.33 403.23 212.07Q402.96 212.81 402.96 213.69Q402.96 214.55 403.23 215.29Q403.51 216.02 404.07 216.48Q404.63 216.93 405.51 216.93M418.49 218.20Q417.66 218.20 416.99 217.89Q416.31 217.58 415.91 216.98Q415.52 216.38 415.52 215.52Q415.52 214.77 415.81 214.30Q416.11 213.83 416.61 213.56Q417.10 213.29 417.70 213.16Q418.30 213.02 418.91 212.95Q419.70 212.84 420.19 212.79Q420.68 212.73 420.92 212.60Q421.16 212.47 421.16 212.15L421.16 212.10Q421.16 211.29 420.70 210.84Q420.23 210.39 419.33 210.39Q418.38 210.39 417.85 210.80Q417.32 211.21 417.12 211.67L415.77 211.23Q416.10 210.43 416.67 209.98Q417.24 209.53 417.93 209.34Q418.62 209.16 419.29 209.16Q419.73 209.16 420.29 209.26Q420.84 209.37 421.36 209.68Q421.88 209.99 422.22 210.61Q422.56 211.22 422.56 212.24L422.56 218L421.18 218L421.18 216.81L421.09 216.81Q420.94 217.12 420.61 217.44Q420.28 217.77 419.76 217.98Q419.23 218.20 418.49 218.20M418.73 216.96Q419.52 216.96 420.05 216.66Q420.59 216.35 420.88 215.86Q421.16 215.38 421.16 214.84L421.16 213.63Q421.07 213.73 420.78 213.82Q420.49 213.90 420.12 213.96Q419.75 214.02 419.40 214.07Q419.05 214.11 418.85 214.13Q418.34 214.20 417.90 214.35Q417.46 214.50 417.20 214.79Q416.93 215.09 416.93 215.59Q416.93 216.27 417.44 216.61Q417.95 216.96 418.73 216.96M427.99 218.11Q426.67 218.11 425.85 217.29Q425.03 216.47 425.03 214.81L425.03 209.27L426.44 209.27L426.44 214.70Q426.44 215.70 426.97 216.27Q427.50 216.84 428.41 216.84Q429.35 216.84 429.98 216.23Q430.61 215.62 430.61 214.50L430.61 209.27L432.02 209.27L432.02 218L430.66 218L430.66 216.37Q430.23 217.32 429.54 217.71Q428.85 218.11 427.99 218.11M436.13 209.27L437.93 209.27L437.93 210.47L436.13 210.47L436.13 215.73Q436.13 216.32 436.37 216.59Q436.61 216.86 437.16 216.86Q437.30 216.86 437.50 216.83Q437.71 216.80 437.88 216.77L438.17 217.95Q437.95 218.03 437.68 218.07Q437.40 218.11 437.13 218.11Q435.99 218.11 435.36 217.51Q434.73 216.91 434.73 215.84L434.73 210.47L433.41 210.47L433.41 209.27L434.73 209.27L434.73 207.19L436.13 207.19M443.28 218.19Q442.09 218.19 441.20 217.63Q440.30 217.06 439.80 216.05Q439.30 215.03 439.30 213.69Q439.30 212.32 439.80 211.30Q440.30 210.28 441.20 209.72Q442.09 209.16 443.28 209.16Q444.48 209.16 445.38 209.72Q446.27 210.28 446.77 211.30Q447.27 212.32 447.27 213.69Q447.27 215.03 446.77 216.05Q446.27 217.06 445.38 217.63Q444.48 218.19 443.28 218.19M443.28 216.93Q444.16 216.93 444.73 216.48Q445.30 216.02 445.58 215.29Q445.85 214.55 445.85 213.69Q445.85 212.82 445.58 212.07Q445.30 211.33 444.73 210.87Q444.16 210.41 443.28 210.41Q442.41 210.41 441.84 210.87Q441.28 211.33 441.01 212.07Q440.73 212.81 440.73 213.69Q440.73 214.55 441.01 215.29Q441.28 216.02 441.84 216.48Q442.41 216.93 443.28 216.93M450.73 218L449.32 218L449.32 209.27L450.69 209.27L450.70 210.87Q451.02 209.98 451.69 209.55Q452.37 209.11 453.14 209.11Q454 209.11 454.57 209.60Q455.13 210.09 455.37 210.89Q455.68 210.06 456.43 209.59Q457.17 209.11 458.12 209.11Q458.88 209.11 459.50 209.44Q460.13 209.77 460.50 210.43Q460.87 211.09 460.87 212.11L460.87 218L459.46 218L459.46 212.15Q459.46 211.20 458.93 210.80Q458.40 210.39 457.70 210.39Q456.81 210.39 456.30 210.93Q455.80 211.47 455.80 212.30L455.80 218L454.39 218L454.39 212.01Q454.39 211.28 453.91 210.84Q453.42 210.39 452.68 210.39Q451.91 210.39 451.32 210.92Q450.73 211.45 450.73 212.50M465.78 218.20Q464.95 218.20 464.28 217.89Q463.60 217.58 463.20 216.98Q462.80 216.38 462.80 215.52Q462.80 214.77 463.10 214.30Q463.40 213.83 463.89 213.56Q464.39 213.29 464.99 213.16Q465.59 213.02 466.20 212.95Q466.98 212.84 467.48 212.79Q467.97 212.73 468.21 212.60Q468.45 212.47 468.45 212.15L468.45 212.10Q468.45 211.29 467.98 210.84Q467.52 210.39 466.62 210.39Q465.67 210.39 465.14 210.80Q464.61 211.21 464.41 211.67L463.05 211.23Q463.39 210.43 463.96 209.98Q464.53 209.53 465.22 209.34Q465.91 209.16 466.58 209.16Q467.02 209.16 467.57 209.26Q468.13 209.37 468.65 209.68Q469.17 209.99 469.51 210.61Q469.85 211.22 469.85 212.24L469.85 218L468.47 218L468.47 216.81L468.38 216.81Q468.23 217.12 467.90 217.44Q467.57 217.77 467.05 217.98Q466.52 218.20 465.78 218.20M466.02 216.96Q466.80 216.96 467.34 216.66Q467.88 216.35 468.16 215.86Q468.45 215.38 468.45 214.84L468.45 213.63Q468.36 213.73 468.07 213.82Q467.78 213.90 467.41 213.96Q467.04 214.02 466.69 214.07Q466.34 214.11 466.14 214.13Q465.63 214.20 465.19 214.35Q464.75 214.50 464.48 214.79Q464.22 215.09 464.22 215.59Q464.22 216.27 464.73 216.61Q465.24 216.96 466.02 216.96M473.96 209.27L475.76 209.27L475.76 210.47L473.96 210.47L473.96 215.73Q473.96 216.32 474.20 216.59Q474.44 216.86 474.99 216.86Q475.13 216.86 475.33 216.83Q475.54 216.80 475.71 216.77L476 217.95Q475.78 218.03 475.50 218.07Q475.23 218.11 474.95 218.11Q473.82 218.11 473.19 217.51Q472.55 216.91 472.55 215.84L472.55 210.47L471.24 210.47L471.24 209.27L472.55 209.27L472.55 207.19L473.96 207.19M481.23 218.19Q479.96 218.19 479.04 217.63Q478.13 217.06 477.63 216.05Q477.13 215.05 477.13 213.70Q477.13 212.36 477.62 211.34Q478.10 210.31 478.99 209.73Q479.88 209.16 481.06 209.16Q481.76 209.16 482.43 209.39Q483.11 209.62 483.66 210.13Q484.21 210.64 484.54 211.48Q484.87 212.31 484.87 213.52L484.87 214.11L478.55 214.11Q478.61 215.48 479.34 216.21Q480.07 216.94 481.23 216.94Q482.01 216.94 482.57 216.60Q483.13 216.26 483.37 215.59L484.73 215.97Q484.42 216.96 483.50 217.57Q482.57 218.19 481.23 218.19M478.56 212.92L483.44 212.92Q483.34 211.80 482.74 211.11Q482.14 210.41 481.06 210.41Q480.31 210.41 479.77 210.76Q479.23 211.11 478.91 211.68Q478.60 212.25 478.56 212.92M494.74 218L493.34 218L490.70 209.27L492.19 209.27L493.25 213.08Q493.44 213.76 493.66 214.61Q493.88 215.45 494.09 216.49Q494.30 215.49 494.50 214.65Q494.71 213.80 494.91 213.08L495.96 209.27L497.46 209.27L498.49 213.08Q498.68 213.78 498.89 214.62Q499.09 215.46 499.30 216.47Q499.52 215.47 499.73 214.63Q499.95 213.79 500.14 213.08L501.20 209.27L502.70 209.27L500.05 218L498.65 218L497.52 214.05Q497.30 213.30 497.10 212.50Q496.90 211.70 496.70 210.87Q496.50 211.70 496.29 212.51Q496.09 213.31 495.88 214.05M508.03 218.19Q506.84 218.19 505.95 217.63Q505.05 217.06 504.55 216.05Q504.05 215.03 504.05 213.69Q504.05 212.32 504.55 211.30Q505.05 210.28 505.95 209.72Q506.84 209.16 508.03 209.16Q509.23 209.16 510.13 209.72Q511.02 210.28 511.52 211.30Q512.02 212.32 512.02 213.69Q512.02 215.03 511.52 216.05Q511.02 217.06 510.13 217.63Q509.23 218.19 508.03 218.19M508.03 216.93Q508.91 216.93 509.48 216.48Q510.05 216.02 510.33 215.29Q510.60 214.55 510.60 213.69Q510.60 212.82 510.33 212.07Q510.05 211.33 509.48 210.87Q508.91 210.41 508.03 210.41Q507.16 210.41 506.59 210.87Q506.03 211.33 505.76 212.07Q505.48 212.81 505.48 213.69Q505.48 214.55 505.76 215.29Q506.03 216.02 506.59 216.48Q507.16 216.93 508.03 216.93M515.48 218L514.07 218L514.07 209.27L515.43 209.27L515.43 210.61L515.52 210.61Q515.77 209.95 516.39 209.54Q517.01 209.14 517.79 209.14Q517.95 209.14 518.16 209.15Q518.38 209.16 518.50 209.16L518.50 210.58Q518.44 210.56 518.19 210.53Q517.94 210.50 517.66 210.50Q516.71 210.50 516.09 211.07Q515.48 211.65 515.48 212.53M521.50 218L520.09 218L520.09 206.36L521.50 206.36L521.50 213.12L521.67 213.12L525.41 209.27L527.15 209.27L523.49 213.02L527.42 218L525.62 218L522.42 213.91L521.50 214.78M529.72 220.80L528.64 220.80L529.33 216.38L530.94 216.38M542.04 218.19Q541.21 218.19 540.70 217.90Q540.20 217.62 539.92 217.25Q539.65 216.89 539.50 216.65L539.34 216.65L539.34 218L537.98 218L537.98 206.36L539.39 206.36L539.39 210.66L539.50 210.66Q539.65 210.43 539.91 210.07Q540.18 209.72 540.68 209.44Q541.18 209.16 542.03 209.16Q543.13 209.16 543.96 209.70Q544.79 210.25 545.26 211.26Q545.73 212.27 545.73 213.66Q545.73 215.05 545.27 216.06Q544.80 217.08 543.96 217.63Q543.13 218.19 542.04 218.19M541.83 216.93Q542.65 216.93 543.20 216.49Q543.75 216.05 544.03 215.30Q544.30 214.55 544.30 213.64Q544.30 212.73 544.03 212Q543.76 211.27 543.21 210.84Q542.66 210.41 541.83 210.41Q540.63 210.41 540 211.30Q539.38 212.20 539.38 213.64Q539.38 215.10 540.01 216.02Q540.64 216.93 541.83 216.93M550.74 218.11Q549.42 218.11 548.60 217.29Q547.78 216.47 547.78 214.81L547.78 209.27L549.19 209.27L549.19 214.70Q549.19 215.70 549.72 216.27Q550.25 216.84 551.16 216.84Q552.10 216.84 552.73 216.23Q553.36 215.62 553.36 214.50L553.36 209.27L554.77 209.27L554.77 218L553.41 218L553.41 216.37Q552.98 217.32 552.29 217.71Q551.60 218.11 550.74 218.11M558.65 218L557.24 218L557.24 209.27L558.65 209.27L558.65 218M557.95 207.84Q557.55 207.84 557.27 207.56Q556.98 207.29 556.98 206.91Q556.98 206.52 557.27 206.25Q557.55 205.98 557.95 205.98Q558.36 205.98 558.65 206.25Q558.94 206.52 558.94 206.91Q558.94 207.29 558.65 207.56Q558.36 207.84 557.95 207.84M561.12 206.36L562.52 206.36L562.52 218L561.12 218M568.27 218.19Q567.18 218.19 566.34 217.63Q565.51 217.08 565.04 216.06Q564.57 215.05 564.57 213.66Q564.57 212.27 565.04 211.26Q565.52 210.25 566.35 209.70Q567.19 209.16 568.27 209.16Q569.13 209.16 569.63 209.44Q570.13 209.72 570.39 210.07Q570.66 210.43 570.80 210.66L570.91 210.66L570.91 206.36L572.32 206.36L572.32 218L570.96 218L570.96 216.65L570.80 216.65Q570.66 216.89 570.39 217.25Q570.11 217.62 569.61 217.90Q569.10 218.19 568.27 218.19M568.48 216.93Q569.66 216.93 570.30 216.02Q570.93 215.10 570.93 213.64Q570.93 212.20 570.31 211.30Q569.69 210.41 568.48 210.41Q567.65 210.41 567.10 210.84Q566.55 211.27 566.27 212Q566 212.73 566 213.64Q566 214.55 566.28 215.30Q566.55 216.05 567.11 216.49Q567.66 216.93 568.48 216.93M583.29 218L581.81 218L578.48 209.27L580.02 209.27L581.88 214.45Q582.08 215.02 582.24 215.58Q582.41 216.15 582.55 216.70Q582.70 216.15 582.86 215.58Q583.02 215.02 583.23 214.45L585.09 209.27L586.63 209.27M589.69 218L588.28 218L588.28 209.27L589.69 209.27L589.69 218M588.99 207.84Q588.59 207.84 588.30 207.56Q588.02 207.29 588.02 206.91Q588.02 206.52 588.30 206.25Q588.59 205.98 588.99 205.98Q589.40 205.98 589.69 206.25Q589.98 206.52 589.98 206.91Q589.98 207.29 589.69 207.56Q589.40 207.84 588.99 207.84M595.83 218.19Q594.56 218.19 593.64 217.63Q592.73 217.06 592.23 216.05Q591.73 215.05 591.73 213.70Q591.73 212.36 592.22 211.34Q592.70 210.31 593.59 209.73Q594.48 209.16 595.66 209.16Q596.36 209.16 597.04 209.39Q597.71 209.62 598.26 210.13Q598.81 210.64 599.14 211.48Q599.47 212.31 599.47 213.52L599.47 214.11L593.16 214.11Q593.21 215.48 593.94 216.21Q594.67 216.94 595.84 216.94Q596.61 216.94 597.17 216.60Q597.73 216.26 597.97 215.59L599.33 215.97Q599.02 216.96 598.10 217.57Q597.17 218.19 595.83 218.19M593.16 212.92L598.04 212.92Q597.94 211.80 597.34 211.11Q596.74 210.41 595.66 210.41Q594.91 210.41 594.37 210.76Q593.83 211.11 593.52 211.68Q593.20 212.25 593.16 212.92M604.84 218L603.45 218L600.80 209.27L602.29 209.27L603.35 213.08Q603.54 213.76 603.76 214.61Q603.98 215.45 604.19 216.49Q604.40 215.49 604.61 214.65Q604.81 213.80 605.02 213.08L606.06 209.27L607.56 209.27L608.59 213.08Q608.78 213.78 608.99 214.62Q609.20 215.46 609.40 216.47Q609.62 215.47 609.83 214.63Q610.05 213.79 610.24 213.08L611.30 209.27L612.80 209.27L610.15 218L608.75 218L607.62 214.05Q607.40 213.30 607.20 212.50Q607 211.70 606.80 210.87Q606.60 211.70 606.39 212.51Q606.19 213.31 605.98 214.05M617.55 218.19Q616.20 218.19 615.31 217.60Q614.42 217.02 614.19 215.88L615.52 215.56Q615.71 216.28 616.23 216.62Q616.75 216.95 617.53 216.95Q618.45 216.95 618.99 216.56Q619.53 216.17 619.53 215.63Q619.53 214.73 618.25 214.43L616.80 214.09Q614.45 213.53 614.45 211.70Q614.45 210.95 614.88 210.38Q615.30 209.80 616.03 209.48Q616.76 209.16 617.69 209.16Q619.04 209.16 619.79 209.75Q620.53 210.34 620.83 211.26L619.55 211.59Q619.38 211.12 618.96 210.73Q618.54 210.35 617.70 210.35Q616.91 210.35 616.39 210.71Q615.88 211.07 615.88 211.62Q615.88 212.10 616.23 212.39Q616.58 212.69 617.34 212.87L618.66 213.18Q619.85 213.46 620.42 214.05Q620.99 214.64 620.99 215.54Q620.99 216.30 620.56 216.90Q620.13 217.50 619.35 217.84Q618.57 218.19 617.55 218.19M623.87 220.80L622.79 220.80L623.48 216.38L625.09 216.38M634.58 218.20Q633.75 218.20 633.07 217.89Q632.40 217.58 632 216.98Q631.60 216.38 631.60 215.52Q631.60 214.77 631.90 214.30Q632.20 213.83 632.69 213.56Q633.19 213.29 633.79 213.16Q634.39 213.02 635 212.95Q635.78 212.84 636.27 212.79Q636.77 212.73 637 212.60Q637.24 212.47 637.24 212.15L637.24 212.10Q637.24 211.29 636.78 210.84Q636.32 210.39 635.41 210.39Q634.47 210.39 633.94 210.80Q633.41 211.21 633.20 211.67L631.85 211.23Q632.19 210.43 632.76 209.98Q633.33 209.53 634.02 209.34Q634.70 209.16 635.38 209.16Q635.81 209.16 636.37 209.26Q636.93 209.37 637.45 209.68Q637.97 209.99 638.31 210.61Q638.65 211.22 638.65 212.24L638.65 218L637.27 218L637.27 216.81L637.17 216.81Q637.02 217.12 636.70 217.44Q636.37 217.77 635.84 217.98Q635.32 218.20 634.58 218.20M634.82 216.96Q635.60 216.96 636.14 216.66Q636.68 216.35 636.96 215.86Q637.24 215.38 637.24 214.84L637.24 213.63Q637.16 213.73 636.87 213.82Q636.58 213.90 636.21 213.96Q635.84 214.02 635.49 214.07Q635.14 214.11 634.94 214.13Q634.43 214.20 633.99 214.35Q633.55 214.50 633.28 214.79Q633.02 215.09 633.02 215.59Q633.02 216.27 633.53 216.61Q634.04 216.96 634.82 216.96M642.52 212.77L642.52 218L641.12 218L641.12 209.27L642.47 209.27L642.48 210.88Q642.90 209.95 643.58 209.55Q644.27 209.16 645.15 209.16Q646.48 209.16 647.29 209.98Q648.10 210.80 648.10 212.45L648.10 218L646.70 218L646.70 212.57Q646.70 211.56 646.17 210.99Q645.64 210.42 644.73 210.42Q643.78 210.42 643.15 211.04Q642.52 211.65 642.52 212.77M653.84 218.19Q652.76 218.19 651.92 217.63Q651.09 217.08 650.62 216.06Q650.15 215.05 650.15 213.66Q650.15 212.27 650.62 211.26Q651.09 210.25 651.93 209.70Q652.77 209.16 653.85 209.16Q654.70 209.16 655.20 209.44Q655.70 209.72 655.97 210.07Q656.24 210.43 656.38 210.66L656.49 210.66L656.49 206.36L657.90 206.36L657.90 218L656.54 218L656.54 216.65L656.38 216.65Q656.24 216.89 655.96 217.25Q655.69 217.62 655.18 217.90Q654.68 218.19 653.84 218.19M654.05 216.93Q655.24 216.93 655.88 216.02Q656.51 215.10 656.51 213.64Q656.51 212.20 655.89 211.30Q655.27 210.41 654.05 210.41Q653.23 210.41 652.68 210.84Q652.13 211.27 651.85 212Q651.58 212.73 651.58 213.64Q651.58 214.55 651.86 215.30Q652.13 216.05 652.69 216.49Q653.24 216.93 654.05 216.93M668.42 218.19Q667.23 218.19 666.34 217.63Q665.45 217.06 664.95 216.05Q664.45 215.03 664.45 213.69Q664.45 212.32 664.95 211.30Q665.45 210.28 666.34 209.72Q667.23 209.16 668.42 209.16Q669.69 209.16 670.64 209.79Q671.60 210.43 671.96 211.57L670.61 211.95Q670.41 211.28 669.85 210.85Q669.28 210.41 668.42 210.41Q667.55 210.41 666.98 210.87Q666.42 211.33 666.15 212.07Q665.88 212.81 665.88 213.69Q665.88 214.55 666.15 215.29Q666.42 216.02 666.98 216.48Q667.55 216.93 668.42 216.93Q669.30 216.93 669.88 216.48Q670.45 216.03 670.65 215.32L671.99 215.70Q671.64 216.87 670.67 217.53Q669.70 218.19 668.42 218.19M677.56 218.19Q676.38 218.19 675.48 217.63Q674.59 217.06 674.09 216.05Q673.59 215.03 673.59 213.69Q673.59 212.32 674.09 211.30Q674.59 210.28 675.48 209.72Q676.38 209.16 677.56 209.16Q678.76 209.16 679.66 209.72Q680.55 210.28 681.05 211.30Q681.55 212.32 681.55 213.69Q681.55 215.03 681.05 216.05Q680.55 217.06 679.66 217.63Q678.76 218.19 677.56 218.19M677.56 216.93Q678.45 216.93 679.02 216.48Q679.59 216.02 679.86 215.29Q680.13 214.55 680.13 213.69Q680.13 212.82 679.86 212.07Q679.59 211.33 679.02 210.87Q678.45 210.41 677.56 210.41Q676.69 210.41 676.13 210.87Q675.56 211.33 675.29 212.07Q675.02 212.81 675.02 213.69Q675.02 214.55 675.29 215.29Q675.56 216.02 676.13 216.48Q676.69 216.93 677.56 216.93M685.01 212.77L685.01 218L683.60 218L683.60 209.27L684.95 209.27L684.96 210.88Q685.38 209.95 686.07 209.55Q686.75 209.16 687.63 209.16Q688.96 209.16 689.77 209.98Q690.59 210.80 690.59 212.45L690.59 218L689.18 218L689.18 212.57Q689.18 211.56 688.65 210.99Q688.13 210.42 687.21 210.42Q686.27 210.42 685.64 211.04Q685.01 211.65 685.01 212.77M694.46 212.77L694.46 218L693.05 218L693.05 209.27L694.41 209.27L694.41 210.88Q694.84 209.95 695.52 209.55Q696.20 209.16 697.09 209.16Q698.41 209.16 699.23 209.98Q700.04 210.80 700.04 212.45L700.04 218L698.63 218L698.63 212.57Q698.63 211.56 698.11 210.99Q697.58 210.42 696.66 210.42Q695.72 210.42 695.09 211.04Q694.46 211.65 694.46 212.77M706.18 218.19Q704.91 218.19 704 217.63Q703.08 217.06 702.58 216.05Q702.09 215.05 702.09 213.70Q702.09 212.36 702.57 211.34Q703.05 210.31 703.94 209.73Q704.83 209.16 706.02 209.16Q706.71 209.16 707.39 209.39Q708.06 209.62 708.61 210.13Q709.16 210.64 709.49 211.48Q709.82 212.31 709.82 213.52L709.82 214.11L703.51 214.11Q703.56 215.48 704.29 216.21Q705.02 216.94 706.19 216.94Q706.96 216.94 707.52 216.60Q708.08 216.26 708.32 215.59L709.68 215.97Q709.38 216.96 708.45 217.57Q707.52 218.19 706.18 218.19M703.52 212.92L708.39 212.92Q708.29 211.80 707.69 211.11Q707.09 210.41 706.02 210.41Q705.27 210.41 704.72 210.76Q704.18 211.11 703.87 211.68Q703.55 212.25 703.52 212.92M715.39 218.19Q714.20 218.19 713.31 217.63Q712.41 217.06 711.91 216.05Q711.41 215.03 711.41 213.69Q711.41 212.32 711.91 211.30Q712.41 210.28 713.31 209.72Q714.20 209.16 715.39 209.16Q716.66 209.16 717.61 209.79Q718.57 210.43 718.93 211.57L717.58 211.95Q717.38 211.28 716.82 210.85Q716.25 210.41 715.39 210.41Q714.52 210.41 713.95 210.87Q713.39 211.33 713.12 212.07Q712.84 212.81 712.84 213.69Q712.84 214.55 713.12 215.29Q713.39 216.02 713.95 216.48Q714.52 216.93 715.39 216.93Q716.27 216.93 716.85 216.48Q717.42 216.03 717.62 215.32L718.96 215.70Q718.61 216.87 717.64 217.53Q716.67 218.19 715.39 218.19M722.62 209.27L724.41 209.27L724.41 210.47L722.62 210.47L722.62 215.73Q722.62 216.32 722.86 216.59Q723.09 216.86 723.65 216.86Q723.78 216.86 723.99 216.83Q724.20 216.80 724.37 216.77L724.66 217.95Q724.44 218.03 724.16 218.07Q723.88 218.11 723.61 218.11Q722.48 218.11 721.84 217.51Q721.21 216.91 721.21 215.84L721.21 210.47L719.90 210.47L719.90 209.27L721.21 209.27L721.21 207.19L722.62 207.19M732.35 209.27L734.15 209.27L734.15 210.47L732.35 210.47L732.35 215.73Q732.35 216.32 732.59 216.59Q732.83 216.86 733.38 216.86Q733.52 216.86 733.72 216.83Q733.93 216.80 734.10 216.77L734.39 217.95Q734.17 218.03 733.89 218.07Q733.62 218.11 733.34 218.11Q732.21 218.11 731.58 217.51Q730.95 216.91 730.95 215.84L730.95 210.47L729.63 210.47L729.63 209.27L730.95 209.27L730.95 207.19L732.35 207.19M739.50 218.19Q738.31 218.19 737.42 217.63Q736.52 217.06 736.02 216.05Q735.52 215.03 735.52 213.69Q735.52 212.32 736.02 211.30Q736.52 210.28 737.42 209.72Q738.31 209.16 739.50 209.16Q740.70 209.16 741.59 209.72Q742.49 210.28 742.99 211.30Q743.49 212.32 743.49 213.69Q743.49 215.03 742.99 216.05Q742.49 217.06 741.59 217.63Q740.70 218.19 739.50 218.19M739.50 216.93Q740.38 216.93 740.95 216.48Q741.52 216.02 741.80 215.29Q742.07 214.55 742.07 213.69Q742.07 212.82 741.80 212.07Q741.52 211.33 740.95 210.87Q740.38 210.41 739.50 210.41Q738.63 210.41 738.06 210.87Q737.50 211.33 737.23 212.07Q736.95 212.81 736.95 213.69Q736.95 214.55 737.23 215.29Q737.50 216.02 738.06 216.48Q738.63 216.93 739.50 216.93M749.09 218.19Q747.91 218.19 747.01 217.63Q746.12 217.06 745.62 216.05Q745.12 215.03 745.12 213.69Q745.12 212.32 745.62 211.30Q746.12 210.28 747.01 209.72Q747.91 209.16 749.09 209.16Q750.29 209.16 751.19 209.72Q752.09 210.28 752.59 211.30Q753.09 212.32 753.09 213.69Q753.09 215.03 752.59 216.05Q752.09 217.06 751.19 217.63Q750.29 218.19 749.09 218.19M749.09 216.93Q749.98 216.93 750.55 216.48Q751.12 216.02 751.39 215.29Q751.66 214.55 751.66 213.69Q751.66 212.82 751.39 212.07Q751.12 211.33 750.55 210.87Q749.98 210.41 749.09 210.41Q748.22 210.41 747.66 210.87Q747.09 211.33 746.82 212.07Q746.55 212.81 746.55 213.69Q746.55 214.55 746.82 215.29Q747.09 216.02 747.66 216.48Q748.22 216.93 749.09 216.93M755.13 206.36L756.54 206.36L756.54 218L755.13 218M761.98 218.19Q760.63 218.19 759.74 217.60Q758.85 217.02 758.62 215.88L759.95 215.56Q760.14 216.28 760.66 216.62Q761.18 216.95 761.96 216.95Q762.88 216.95 763.42 216.56Q763.96 216.17 763.96 215.63Q763.96 214.73 762.68 214.43L761.23 214.09Q758.88 213.53 758.88 211.70Q758.88 210.95 759.30 210.38Q759.73 209.80 760.46 209.48Q761.19 209.16 762.12 209.16Q763.47 209.16 764.21 209.75Q764.96 210.34 765.26 211.26L763.98 211.59Q763.80 211.12 763.39 210.73Q762.97 210.35 762.13 210.35Q761.34 210.35 760.82 210.71Q760.30 211.07 760.30 211.62Q760.30 212.10 760.66 212.39Q761.01 212.69 761.77 212.87L763.09 213.18Q764.28 213.46 764.85 214.05Q765.42 214.64 765.42 215.54Q765.42 216.30 764.99 216.90Q764.55 217.50 763.78 217.84Q763 218.19 761.98 218.19M768.52 218.10Q768.09 218.10 767.78 217.79Q767.47 217.48 767.47 217.05Q767.47 216.61 767.78 216.30Q768.09 215.99 768.52 215.99Q768.96 215.99 769.27 216.30Q769.58 216.61 769.58 217.05Q769.58 217.48 769.27 217.79Q768.96 218.10 768.52 218.10"/>
  </g>
</svg>
