<svg viewBox="0 0 1280 240" xmlns="http://www.w3.org/2000/svg">
  <defs>
    <filter id="fblur" x="-50%" y="-50%" width="200%" height="200%"><feGaussianBlur stdDeviation="28"/></filter>
    <linearGradient id="fade" x1="0" y1="0" x2="0" y2="1"><stop offset="0" stop-color="#0E0B1A"/><stop offset="1" stop-color="#0E0B1A" stop-opacity="0"/></linearGradient>
  </defs>
  <rect width="1280" height="240" fill="#0E0B1A"/>
  <g filter="url(#fblur)">
    <ellipse cx="240" cy="250" rx="180" ry="90" fill="#6C3BFF" opacity="0.5"><animate attributeName="cy" values="250;225;250" dur="7s" repeatCount="indefinite"/></ellipse>
    <ellipse cx="520" cy="265" rx="200" ry="100" fill="#A78BFA" opacity="0.35"><animate attributeName="cy" values="265;235;265" dur="9s" begin="1s" repeatCount="indefinite"/></ellipse>
    <ellipse cx="800" cy="255" rx="190" ry="95" fill="#6C3BFF" opacity="0.45"><animate attributeName="cy" values="255;230;255" dur="8s" begin=".5s" repeatCount="indefinite"/></ellipse>
    <ellipse cx="1080" cy="265" rx="200" ry="100" fill="#A78BFA" opacity="0.4"><animate attributeName="cy" values="265;240;265" dur="10s" begin="1.5s" repeatCount="indefinite"/></ellipse>
  </g>
  <rect width="1280" height="140" fill="url(#fade)"/>
  <path d="M421.405 108.304Q418.517 108.304 416.047 107.373Q413.577 106.442 411.962 104.447Q410.347 102.452 409.967 99.336L416.199 99.336Q416.503 100.514 417.320 101.236Q418.137 101.958 419.315 102.281Q420.493 102.604 421.823 102.604Q422.735 102.604 423.647 102.395Q424.559 102.186 425.167 101.654Q425.775 101.122 425.775 100.172Q425.775 99.450 425.433 99.013Q425.091 98.576 424.464 98.291Q423.837 98.006 422.925 97.778Q422.355 97.626 421.747 97.512Q421.139 97.398 420.569 97.246Q419.999 97.094 419.429 96.904Q417.719 96.486 416.161 95.935Q414.603 95.384 413.406 94.510Q412.209 93.636 411.525 92.230Q410.841 90.824 410.841 88.734Q410.841 86.720 411.544 85.295Q412.247 83.870 413.444 82.977Q414.641 82.084 416.066 81.609Q417.491 81.134 418.916 80.944Q420.341 80.754 421.557 80.754Q424.255 80.754 426.364 81.742Q428.473 82.730 429.784 84.649Q431.095 86.568 431.361 89.380L425.395 89.380Q425.243 88.392 424.616 87.746Q423.989 87.100 423.020 86.758Q422.051 86.416 420.797 86.416Q420.037 86.416 419.334 86.549Q418.631 86.682 418.118 86.948Q417.605 87.214 417.282 87.651Q416.959 88.088 416.959 88.734Q416.959 89.418 417.415 89.893Q417.871 90.368 418.726 90.710Q419.581 91.052 420.835 91.394Q421.709 91.698 422.640 91.869Q423.571 92.040 424.445 92.306Q426.041 92.686 427.390 93.199Q428.739 93.712 429.765 94.491Q430.791 95.270 431.380 96.543Q431.969 97.816 431.969 99.754Q431.969 102.110 431.095 103.725Q430.221 105.340 428.701 106.366Q427.181 107.392 425.300 107.848Q423.419 108.304 421.405 108.304 M440.405 108L434.363 108L434.363 81.096L440.405 81.096L440.405 90.064Q441.279 89.038 442.381 88.506Q443.483 87.974 444.566 87.784Q445.649 87.594 446.447 87.594Q449.221 87.594 450.817 88.867Q452.413 90.140 453.078 92.268Q453.743 94.396 453.743 96.942L453.743 108L447.739 108L447.739 97.588Q447.739 96.866 447.587 96.068Q447.435 95.270 447.036 94.605Q446.637 93.940 445.953 93.522Q445.269 93.104 444.167 93.104Q443.141 93.104 442.400 93.503Q441.659 93.902 441.222 94.586Q440.785 95.270 440.595 96.125Q440.405 96.980 440.405 97.854 M462.711 108.304Q461.305 108.304 460.051 107.924Q458.797 107.544 457.809 106.784Q456.821 106.024 456.251 104.884Q455.681 103.744 455.681 102.224Q455.681 100.058 456.574 98.785Q457.467 97.512 459.006 96.885Q460.545 96.258 462.521 96.068Q464.497 95.878 466.625 95.878L468.525 95.878Q468.525 94.928 468.164 94.225Q467.803 93.522 467.081 93.104Q466.359 92.686 465.295 92.686Q464.535 92.686 463.870 92.895Q463.205 93.104 462.768 93.465Q462.331 93.826 462.179 94.358L456.137 94.358Q456.403 92.572 457.258 91.299Q458.113 90.026 459.386 89.228Q460.659 88.430 462.255 88.031Q463.851 87.632 465.523 87.632Q469.931 87.632 472.097 90.102Q474.263 92.572 474.263 97.246L474.263 108L468.753 108L468.715 105.378Q467.765 106.822 466.549 107.430Q465.333 108.038 464.269 108.171Q463.205 108.304 462.711 108.304M464.231 103.630Q465.371 103.630 466.359 103.117Q467.347 102.604 467.974 101.787Q468.601 100.970 468.601 100.020L468.601 99.716L464.877 99.716Q464.269 99.716 463.680 99.792Q463.091 99.868 462.635 100.077Q462.179 100.286 461.913 100.666Q461.647 101.046 461.647 101.654Q461.647 102.300 461.989 102.737Q462.331 103.174 462.920 103.402Q463.509 103.630 464.231 103.630 M483.003 115.562L476.961 115.562L476.961 87.974L482.547 87.974L482.851 90.330Q484.181 88.848 485.682 88.221Q487.183 87.594 489.045 87.594Q491.971 87.594 493.909 88.981Q495.847 90.368 496.816 92.686Q497.785 95.004 497.785 97.930Q497.785 100.856 496.759 103.212Q495.733 105.568 493.719 106.936Q491.705 108.304 488.741 108.304Q487.487 108.304 486.385 108Q485.283 107.696 484.409 107.202Q483.535 106.708 483.003 106.138L483.003 115.562M487.601 102.832Q489.273 102.832 490.185 102.110Q491.097 101.388 491.477 100.286Q491.857 99.184 491.857 98.082Q491.857 96.866 491.439 95.707Q491.021 94.548 490.071 93.826Q489.121 93.104 487.487 93.104Q486.005 93.104 484.998 93.807Q483.991 94.510 483.478 95.612Q482.965 96.714 482.965 97.968Q482.965 99.222 483.459 100.324Q483.953 101.426 484.979 102.129Q486.005 102.832 487.601 102.832 M509.071 108.304Q505.955 108.304 503.694 107.050Q501.433 105.796 500.217 103.497Q499.001 101.198 499.001 98.082Q499.001 94.966 500.255 92.610Q501.509 90.254 503.770 88.924Q506.031 87.594 509.109 87.594Q511.351 87.594 513.080 88.316Q514.809 89.038 516.044 90.368Q517.279 91.698 517.906 93.522Q518.533 95.346 518.533 97.512Q518.495 98.082 518.457 98.633Q518.419 99.184 518.267 99.754L504.967 99.754Q505.081 100.704 505.537 101.502Q505.993 102.300 506.829 102.756Q507.665 103.212 508.957 103.212Q509.869 103.212 510.610 103.003Q511.351 102.794 511.845 102.395Q512.339 101.996 512.491 101.502L518.419 101.502Q517.925 103.896 516.519 105.397Q515.113 106.898 513.175 107.601Q511.237 108.304 509.071 108.304M505.081 95.688L512.795 95.688Q512.795 94.890 512.396 94.130Q511.997 93.370 511.161 92.895Q510.325 92.420 508.995 92.420Q507.703 92.420 506.829 92.914Q505.955 93.408 505.537 94.168Q505.119 94.928 505.081 95.688 M528.793 108.304Q525.715 108.304 523.701 106.879Q521.687 105.454 520.699 103.117Q519.711 100.780 519.711 97.968Q519.711 94.928 520.813 92.591Q521.915 90.254 524.043 88.924Q526.171 87.594 529.287 87.594Q530.351 87.594 531.320 87.822Q532.289 88.050 533.144 88.487Q533.999 88.924 534.569 89.608L534.569 81.096L540.611 81.096L540.611 108L534.721 108L534.721 105.986Q533.999 106.784 533.068 107.278Q532.137 107.772 531.073 108.038Q530.009 108.304 528.793 108.304M530.085 102.832Q531.681 102.832 532.669 102.129Q533.657 101.426 534.132 100.305Q534.607 99.184 534.607 97.968Q534.607 96.676 534.132 95.574Q533.657 94.472 532.669 93.788Q531.681 93.104 530.085 93.104Q528.451 93.104 527.482 93.845Q526.513 94.586 526.114 95.726Q525.715 96.866 525.715 98.082Q525.715 98.994 525.943 99.849Q526.171 100.704 526.684 101.369Q527.197 102.034 528.033 102.433Q528.869 102.832 530.085 102.832 M564.285 108L562.461 108Q559.877 108 558.091 107.411Q556.305 106.822 555.374 105.359Q554.443 103.896 554.443 101.236L554.443 93.332L551.555 93.332L551.555 87.974L554.443 87.974L554.443 82.806L560.485 82.806L560.485 87.974L564.475 87.974L564.475 93.332L560.485 93.332L560.485 100.362Q560.485 101.350 560.827 101.977Q561.169 102.604 562.575 102.604L564.285 102.604 M575.381 108.304Q572.379 108.304 570.042 107.088Q567.705 105.872 566.375 103.573Q565.045 101.274 565.045 98.044Q565.045 94.738 566.394 92.401Q567.743 90.064 570.061 88.829Q572.379 87.594 575.305 87.594Q578.269 87.594 580.549 88.867Q582.829 90.140 584.159 92.477Q585.489 94.814 585.489 98.120Q585.489 101.350 584.216 103.630Q582.943 105.910 580.663 107.107Q578.383 108.304 575.381 108.304M575.267 102.718Q576.863 102.718 577.813 102.034Q578.763 101.350 579.162 100.286Q579.561 99.222 579.561 98.082Q579.561 96.942 579.162 95.802Q578.763 94.662 577.832 93.921Q576.901 93.180 575.267 93.180Q573.671 93.180 572.721 93.921Q571.771 94.662 571.353 95.783Q570.935 96.904 570.935 98.082Q570.935 99.222 571.372 100.305Q571.809 101.388 572.740 102.053Q573.671 102.718 575.267 102.718 M606.503 108.304Q603.387 108.304 601.126 107.050Q598.865 105.796 597.649 103.497Q596.433 101.198 596.433 98.082Q596.433 94.966 597.687 92.610Q598.941 90.254 601.202 88.924Q603.463 87.594 606.541 87.594Q608.783 87.594 610.512 88.316Q612.241 89.038 613.476 90.368Q614.711 91.698 615.338 93.522Q615.965 95.346 615.965 97.512Q615.927 98.082 615.889 98.633Q615.851 99.184 615.699 99.754L602.399 99.754Q602.513 100.704 602.969 101.502Q603.425 102.300 604.261 102.756Q605.097 103.212 606.389 103.212Q607.301 103.212 608.042 103.003Q608.783 102.794 609.277 102.395Q609.771 101.996 609.923 101.502L615.851 101.502Q615.357 103.896 613.951 105.397Q612.545 106.898 610.607 107.601Q608.669 108.304 606.503 108.304M602.513 95.688L610.227 95.688Q610.227 94.890 609.828 94.130Q609.429 93.370 608.593 92.895Q607.757 92.420 606.427 92.420Q605.135 92.420 604.261 92.914Q603.387 93.408 602.969 94.168Q602.551 94.928 602.513 95.688 M630.709 108L622.653 108L615.851 87.974L622.425 87.974L626.719 103.250L630.975 87.974L637.511 87.974 M647.543 108.304Q644.427 108.304 642.166 107.050Q639.905 105.796 638.689 103.497Q637.473 101.198 637.473 98.082Q637.473 94.966 638.727 92.610Q639.981 90.254 642.242 88.924Q644.503 87.594 647.581 87.594Q649.823 87.594 651.552 88.316Q653.281 89.038 654.516 90.368Q655.751 91.698 656.378 93.522Q657.005 95.346 657.005 97.512Q656.967 98.082 656.929 98.633Q656.891 99.184 656.739 99.754L643.439 99.754Q643.553 100.704 644.009 101.502Q644.465 102.300 645.301 102.756Q646.137 103.212 647.429 103.212Q648.341 103.212 649.082 103.003Q649.823 102.794 650.317 102.395Q650.811 101.996 650.963 101.502L656.891 101.502Q656.397 103.896 654.991 105.397Q653.585 106.898 651.647 107.601Q649.709 108.304 647.543 108.304M643.553 95.688L651.267 95.688Q651.267 94.890 650.868 94.130Q650.469 93.370 649.633 92.895Q648.797 92.420 647.467 92.420Q646.175 92.420 645.301 92.914Q644.427 93.408 644.009 94.168Q643.591 94.928 643.553 95.688 M664.985 108L658.943 108L658.943 87.974L664.263 87.974L664.681 90.102Q665.441 89 666.372 88.468Q667.303 87.936 668.272 87.765Q669.241 87.594 670.153 87.594Q670.723 87.594 671.198 87.613Q671.673 87.632 671.825 87.670L671.825 93.446L670.571 93.446Q668.975 93.446 667.702 93.940Q666.429 94.434 665.707 95.574Q664.985 96.714 664.985 98.766 M681.857 117.348Q679.539 117.348 677.316 116.740Q675.093 116.132 673.079 114.764L674.979 109.900Q676.119 110.736 677.620 111.230Q679.121 111.724 681.059 111.724Q683.909 111.724 685.353 110.508Q686.797 109.292 686.797 106.784L686.797 106.176Q686.151 106.974 685.201 107.430Q684.251 107.886 683.225 108.095Q682.199 108.304 681.173 108.304Q678.285 108.304 676.537 107.088Q674.789 105.872 673.991 103.744Q673.193 101.616 673.193 98.956L673.193 87.974L679.159 87.974L679.159 97.778Q679.159 98.614 679.273 99.488Q679.387 100.362 679.767 101.141Q680.147 101.920 680.926 102.395Q681.705 102.870 682.959 102.870Q684.669 102.870 685.467 102.034Q686.265 101.198 686.493 99.963Q686.721 98.728 686.721 97.474L686.721 87.974L692.763 87.974L692.763 104.162Q692.763 107.088 692.269 109.501Q691.775 111.914 690.559 113.662Q689.343 115.410 687.215 116.379Q685.087 117.348 681.857 117.348 M714.309 108.304Q711.269 108.304 709.065 107.069Q706.861 105.834 705.664 103.516Q704.467 101.198 704.467 98.044Q704.467 94.814 705.702 92.477Q706.937 90.140 709.179 88.867Q711.421 87.594 714.499 87.594Q717.045 87.594 719.040 88.525Q721.035 89.456 722.232 91.204Q723.429 92.952 723.581 95.498L717.729 95.498Q717.425 94.282 716.570 93.693Q715.715 93.104 714.499 93.104Q712.941 93.104 712.048 93.883Q711.155 94.662 710.794 95.802Q710.433 96.942 710.433 98.044Q710.433 99.260 710.832 100.362Q711.231 101.464 712.124 102.148Q713.017 102.832 714.423 102.832Q715.715 102.832 716.608 102.224Q717.501 101.616 717.767 100.438L723.771 100.438Q723.657 103.022 722.346 104.770Q721.035 106.518 718.945 107.411Q716.855 108.304 714.309 108.304 M734.905 108.304Q730.383 108.304 727.932 106.024Q725.481 103.744 725.481 99.146L725.481 87.974L731.523 87.974L731.523 98.690Q731.523 99.868 731.846 100.799Q732.169 101.730 732.929 102.281Q733.689 102.832 734.905 102.832Q736.273 102.832 736.957 102.224Q737.641 101.616 737.850 100.647Q738.059 99.678 738.059 98.690L738.059 87.974L744.063 87.974L744.063 99.146Q744.063 103.972 741.612 106.138Q739.161 108.304 734.905 108.304 M754.779 108.304Q753.335 108.304 751.834 107.962Q750.333 107.620 749.041 106.860Q747.749 106.100 746.875 104.770Q746.001 103.440 745.697 101.426L751.777 101.426Q752.005 102.034 752.480 102.471Q752.955 102.908 753.658 103.117Q754.361 103.326 755.083 103.326Q755.577 103.326 756.033 103.250Q756.489 103.174 756.850 102.984Q757.211 102.794 757.401 102.509Q757.591 102.224 757.591 101.806Q757.591 101.198 757.192 100.913Q756.793 100.628 756.090 100.457Q755.387 100.286 754.475 100.096Q752.993 99.792 751.302 99.336Q749.611 98.880 748.433 98.120Q747.863 97.740 747.445 97.265Q747.027 96.790 746.780 96.239Q746.533 95.688 746.400 95.061Q746.267 94.434 746.267 93.712Q746.267 92.040 747.008 90.862Q747.749 89.684 748.946 88.962Q750.143 88.240 751.625 87.917Q753.107 87.594 754.589 87.594Q756.679 87.594 758.465 88.259Q760.251 88.924 761.448 90.387Q762.645 91.850 762.949 94.206L757.135 94.206Q757.021 93.446 756.261 92.990Q755.501 92.534 754.361 92.534Q753.943 92.534 753.525 92.629Q753.107 92.724 752.784 92.857Q752.461 92.990 752.252 93.256Q752.043 93.522 752.043 93.902Q752.043 94.168 752.214 94.434Q752.385 94.700 752.746 94.909Q753.107 95.118 753.677 95.308Q754.969 95.574 756.185 95.821Q757.401 96.068 758.503 96.296Q759.719 96.562 760.859 97.151Q761.999 97.740 762.740 98.804Q763.481 99.868 763.481 101.692Q763.481 103.592 762.702 104.884Q761.923 106.176 760.631 106.898Q759.339 107.620 757.819 107.962Q756.299 108.304 754.779 108.304 M775.983 108L774.159 108Q771.575 108 769.789 107.411Q768.003 106.822 767.072 105.359Q766.141 103.896 766.141 101.236L766.141 93.332L763.253 93.332L763.253 87.974L766.141 87.974L766.141 82.806L772.183 82.806L772.183 87.974L776.173 87.974L776.173 93.332L772.183 93.332L772.183 100.362Q772.183 101.350 772.525 101.977Q772.867 102.604 774.273 102.604L775.983 102.604 M787.079 108.304Q784.077 108.304 781.740 107.088Q779.403 105.872 778.073 103.573Q776.743 101.274 776.743 98.044Q776.743 94.738 778.092 92.401Q779.441 90.064 781.759 88.829Q784.077 87.594 787.003 87.594Q789.967 87.594 792.247 88.867Q794.527 90.140 795.857 92.477Q797.187 94.814 797.187 98.120Q797.187 101.350 795.914 103.630Q794.641 105.910 792.361 107.107Q790.081 108.304 787.079 108.304M786.965 102.718Q788.561 102.718 789.511 102.034Q790.461 101.350 790.860 100.286Q791.259 99.222 791.259 98.082Q791.259 96.942 790.860 95.802Q790.461 94.662 789.530 93.921Q788.599 93.180 786.965 93.180Q785.369 93.180 784.419 93.921Q783.469 94.662 783.051 95.783Q782.633 96.904 782.633 98.082Q782.633 99.222 783.070 100.305Q783.507 101.388 784.438 102.053Q785.369 102.718 786.965 102.718 M805.205 108L799.163 108L799.163 87.974L804.521 87.974L805.053 90.140Q805.889 89.038 806.858 88.487Q807.827 87.936 808.758 87.784Q809.689 87.632 810.335 87.632Q812.007 87.632 813.413 88.240Q814.819 88.848 815.693 90.444Q816.529 89.304 817.517 88.715Q818.505 88.126 819.531 87.879Q820.557 87.632 821.583 87.632Q823.977 87.632 825.421 88.601Q826.865 89.570 827.549 91.337Q828.233 93.104 828.233 95.422L828.233 108L822.229 108L822.229 96.752Q822.229 96.220 822.153 95.574Q822.077 94.928 821.830 94.377Q821.583 93.826 821.089 93.465Q820.595 93.104 819.721 93.104Q818.847 93.104 818.277 93.465Q817.707 93.826 817.365 94.415Q817.023 95.004 816.890 95.726Q816.757 96.448 816.757 97.170L816.757 108L810.753 108L810.753 96.714Q810.753 96.220 810.658 95.593Q810.563 94.966 810.316 94.396Q810.069 93.826 809.556 93.465Q809.043 93.104 808.093 93.104Q806.801 93.104 806.174 93.826Q805.547 94.548 805.376 95.536Q805.205 96.524 805.205 97.360 M840.127 108.304Q837.011 108.304 834.750 107.050Q832.489 105.796 831.273 103.497Q830.057 101.198 830.057 98.082Q830.057 94.966 831.311 92.610Q832.565 90.254 834.826 88.924Q837.087 87.594 840.165 87.594Q842.407 87.594 844.136 88.316Q845.865 89.038 847.100 90.368Q848.335 91.698 848.962 93.522Q849.589 95.346 849.589 97.512Q849.551 98.082 849.513 98.633Q849.475 99.184 849.323 99.754L836.023 99.754Q836.137 100.704 836.593 101.502Q837.049 102.300 837.885 102.756Q838.721 103.212 840.013 103.212Q840.925 103.212 841.666 103.003Q842.407 102.794 842.901 102.395Q843.395 101.996 843.547 101.502L849.475 101.502Q848.981 103.896 847.575 105.397Q846.169 106.898 844.231 107.601Q842.293 108.304 840.127 108.304M836.137 95.688L843.851 95.688Q843.851 94.890 843.452 94.130Q843.053 93.370 842.217 92.895Q841.381 92.420 840.051 92.420Q838.759 92.420 837.885 92.914Q837.011 93.408 836.593 94.168Q836.175 94.928 836.137 95.688 M857.569 108L851.527 108L851.527 87.974L856.847 87.974L857.265 90.102Q858.025 89 858.956 88.468Q859.887 87.936 860.856 87.765Q861.825 87.594 862.737 87.594Q863.307 87.594 863.782 87.613Q864.257 87.632 864.409 87.670L864.409 93.446L863.155 93.446Q861.559 93.446 860.286 93.940Q859.013 94.434 858.291 95.574Q857.569 96.714 857.569 98.766 M867.221 108.570Q865.777 108.570 864.713 107.658Q863.649 106.746 863.649 104.998Q863.649 103.212 864.732 102.224Q865.815 101.236 867.259 101.236Q868.703 101.236 869.748 102.205Q870.793 103.174 870.793 104.960Q870.793 106.746 869.748 107.658Q868.703 108.570 867.221 108.570" fill="#FFFFFF"/>
  <g transform="translate(524,138)">
    <rect width="232" height="40" rx="20" fill="#FFFFFF"/>
    <path d="M35 15.415L36.076 18.727L39.558 18.727L36.741 20.773L37.817 24.085L35 22.038L32.183 24.085L33.259 20.773L30.442 18.727L33.924 18.727Z M51.294 25.216Q50.242 25.216 49.465 24.797Q48.689 24.379 48.243 23.616Q47.798 22.854 47.717 21.814L49.418 21.720Q49.499 22.381 49.755 22.820Q50.012 23.259 50.424 23.481Q50.835 23.704 51.376 23.704Q51.889 23.704 52.246 23.569Q52.604 23.434 52.793 23.164Q52.982 22.894 52.982 22.503Q52.982 22.111 52.793 21.821Q52.604 21.531 52.118 21.288Q51.632 21.044 50.727 20.788Q49.755 20.532 49.134 20.187Q48.514 19.843 48.216 19.330Q47.919 18.817 47.919 18.047Q47.919 17.184 48.304 16.542Q48.689 15.901 49.425 15.550Q50.160 15.199 51.186 15.199Q52.199 15.199 52.914 15.584Q53.630 15.969 54.042 16.677Q54.453 17.386 54.548 18.358L52.847 18.439Q52.779 17.913 52.563 17.528Q52.347 17.143 51.990 16.927Q51.632 16.711 51.119 16.711Q50.430 16.711 50.026 17.049Q49.620 17.386 49.620 17.953Q49.620 18.331 49.803 18.587Q49.985 18.844 50.430 19.047Q50.876 19.249 51.686 19.465Q52.793 19.776 53.448 20.181Q54.102 20.585 54.393 21.146Q54.683 21.706 54.683 22.476Q54.683 23.299 54.264 23.920Q53.846 24.541 53.090 24.878Q52.334 25.216 51.294 25.216 M62.378 25L60.313 25Q59.151 25 58.598 24.467Q58.044 23.933 58.044 22.840L58.044 16.104L59.638 16.104L59.638 22.718Q59.638 23.218 59.880 23.461Q60.123 23.704 60.596 23.704L62.378 23.704L62.378 25M62.378 19.087L55.871 19.087L55.871 17.791L62.378 17.791 M66.401 25.162Q65.726 25.162 65.186 24.919Q64.646 24.676 64.322 24.224Q63.998 23.771 63.998 23.151Q63.998 22.233 64.572 21.726Q65.145 21.220 66.225 20.991L68.480 20.518Q68.480 19.762 68.163 19.364Q67.846 18.965 67.171 18.965Q66.549 18.965 66.212 19.262Q65.874 19.559 65.767 20.046L64.106 19.951Q64.308 18.912 65.112 18.270Q65.915 17.629 67.144 17.629Q68.615 17.629 69.344 18.412Q70.073 19.195 70.073 20.599L70.073 23.285Q70.073 23.555 70.181 23.657Q70.289 23.758 70.478 23.758L70.829 23.758L70.829 25Q70.748 25.014 70.566 25.034Q70.383 25.054 70.195 25.054Q69.681 25.054 69.324 24.878Q68.966 24.703 68.777 24.345Q68.588 23.988 68.575 23.461L68.777 23.461Q68.710 23.947 68.386 24.332Q68.061 24.716 67.555 24.939Q67.049 25.162 66.401 25.162M66.684 23.920Q67.265 23.920 67.670 23.711Q68.075 23.502 68.278 23.117Q68.480 22.732 68.480 22.192L68.480 21.706L66.684 22.084Q66.104 22.192 65.881 22.428Q65.659 22.665 65.659 23.056Q65.659 23.461 65.928 23.691Q66.198 23.920 66.684 23.920 M78.106 25L72.503 25L72.503 23.704L74.987 23.704L74.285 24.392L74.285 18.385L74.987 19.087L72.503 19.087L72.503 17.791L75.500 17.791L75.635 19.883L75.500 19.762Q75.594 18.790 76.040 18.291Q76.486 17.791 77.323 17.791L78.902 17.791L78.902 19.128L77.417 19.128Q76.904 19.128 76.567 19.317Q76.229 19.506 76.053 19.870Q75.878 20.235 75.878 20.788L75.878 24.392L75.176 23.704L78.106 23.704 M94.306 25L88.703 25L88.703 23.704L91.187 23.704L90.485 24.392L90.485 18.385L91.187 19.087L88.703 19.087L88.703 17.791L91.700 17.791L91.835 19.883L91.700 19.762Q91.794 18.790 92.240 18.291Q92.686 17.791 93.523 17.791L95.102 17.791L95.102 19.128L93.617 19.128Q93.104 19.128 92.767 19.317Q92.429 19.506 92.254 19.870Q92.078 20.235 92.078 20.788L92.078 24.392L91.376 23.704L94.306 23.704 M99.071 25.162Q98.031 25.162 97.431 24.467Q96.830 23.771 96.830 22.489L96.830 17.791L98.423 17.791L98.423 22.070Q98.423 22.975 98.727 23.387Q99.031 23.799 99.651 23.799Q100.299 23.799 100.711 23.333Q101.123 22.867 101.123 22.017L101.123 17.791L102.730 17.791L102.730 25L101.245 25L101.218 23.015L101.420 23.083Q101.245 24.082 100.637 24.622Q100.029 25.162 99.071 25.162 M106.469 25L104.876 25L104.876 17.791L106.334 17.791L106.388 19.721L106.226 19.627Q106.347 18.939 106.685 18.500Q107.022 18.061 107.515 17.845Q108.008 17.629 108.588 17.629Q109.385 17.629 109.898 17.980Q110.411 18.331 110.667 18.945Q110.924 19.559 110.924 20.343L110.924 25L109.331 25L109.331 20.721Q109.331 19.857 109.014 19.425Q108.697 18.992 108.048 18.992Q107.616 18.992 107.259 19.195Q106.901 19.398 106.685 19.796Q106.469 20.194 106.469 20.774 M116.986 25L115.014 25L112.490 17.791L114.204 17.791L116 23.272L117.796 17.791L119.510 17.791 M124.154 25.162Q123.141 25.162 122.379 24.703Q121.616 24.244 121.191 23.393Q120.766 22.543 120.766 21.395Q120.766 20.261 121.184 19.418Q121.602 18.574 122.358 18.102Q123.114 17.629 124.114 17.629Q125.085 17.629 125.835 18.088Q126.584 18.547 127.009 19.398Q127.434 20.248 127.434 21.422L127.434 21.841L122.412 21.841Q122.480 22.759 122.946 23.245Q123.412 23.731 124.181 23.731Q124.748 23.731 125.133 23.454Q125.517 23.177 125.666 22.732L127.299 22.854Q126.962 23.933 126.152 24.548Q125.342 25.162 124.154 25.162M122.439 20.680L125.706 20.680Q125.639 19.857 125.207 19.458Q124.775 19.060 124.100 19.060Q123.425 19.060 122.986 19.472Q122.547 19.883 122.439 20.680 M130.769 25L129.176 25L129.176 17.791L130.634 17.791L130.688 19.721L130.526 19.627Q130.648 18.939 130.985 18.500Q131.323 18.061 131.815 17.845Q132.308 17.629 132.888 17.629Q133.685 17.629 134.198 17.980Q134.711 18.331 134.968 18.945Q135.224 19.559 135.224 20.343L135.224 25L133.631 25L133.631 20.721Q133.631 19.857 133.314 19.425Q132.996 18.992 132.349 18.992Q131.917 18.992 131.559 19.195Q131.201 19.398 130.985 19.796Q130.769 20.194 130.769 20.774 M139.625 25.162Q138.720 25.162 138.059 24.710Q137.398 24.258 137.040 23.414Q136.682 22.570 136.682 21.395Q136.682 20.221 137.040 19.377Q137.398 18.534 138.059 18.081Q138.720 17.629 139.625 17.629Q140.219 17.629 140.691 17.845Q141.164 18.061 141.475 18.419Q141.785 18.776 141.906 19.209L141.758 19.506L141.758 15.415L143.351 15.415L143.351 25L141.839 25L141.758 23.177L141.960 23.448Q141.812 23.947 141.488 24.332Q141.164 24.716 140.698 24.939Q140.232 25.162 139.625 25.162M140.003 23.731Q140.530 23.731 140.928 23.448Q141.326 23.164 141.542 22.644Q141.758 22.125 141.758 21.395Q141.758 20.653 141.542 20.133Q141.326 19.614 140.928 19.337Q140.530 19.060 139.976 19.060Q139.207 19.060 138.774 19.674Q138.343 20.288 138.343 21.395Q138.343 22.503 138.774 23.117Q139.207 23.731 140.003 23.731 M148.400 25.162Q147.387 25.162 146.625 24.703Q145.862 24.244 145.444 23.393Q145.025 22.543 145.025 21.395Q145.025 20.248 145.444 19.398Q145.862 18.547 146.625 18.088Q147.387 17.629 148.400 17.629Q149.412 17.629 150.175 18.088Q150.938 18.547 151.356 19.391Q151.775 20.235 151.775 21.395Q151.775 22.543 151.356 23.393Q150.938 24.244 150.175 24.703Q149.412 25.162 148.400 25.162M148.400 23.731Q149.224 23.731 149.669 23.117Q150.114 22.503 150.114 21.395Q150.114 20.288 149.669 19.674Q149.224 19.060 148.400 19.060Q147.576 19.060 147.131 19.674Q146.685 20.288 146.685 21.395Q146.685 22.503 147.131 23.117Q147.576 23.731 148.400 23.731 M155.231 26.485L153.719 26.485L157.769 14.875L159.281 14.875 M165.586 25L163.615 25L161.090 17.791L162.805 17.791L164.600 23.272L166.395 17.791L168.110 17.791 M172.754 25.162Q171.742 25.162 170.979 24.703Q170.216 24.244 169.791 23.393Q169.365 22.543 169.365 21.395Q169.365 20.261 169.784 19.418Q170.203 18.574 170.959 18.102Q171.715 17.629 172.714 17.629Q173.686 17.629 174.435 18.088Q175.184 18.547 175.609 19.398Q176.035 20.248 176.035 21.422L176.035 21.841L171.013 21.841Q171.080 22.759 171.546 23.245Q172.012 23.731 172.781 23.731Q173.348 23.731 173.733 23.454Q174.118 23.177 174.266 22.732L175.900 22.854Q175.562 23.933 174.752 24.548Q173.942 25.162 172.754 25.162M171.040 20.680L174.306 20.680Q174.239 19.857 173.807 19.458Q173.375 19.060 172.700 19.060Q172.025 19.060 171.586 19.472Q171.148 19.883 171.040 20.680 M179.369 25L177.776 25L177.776 17.791L179.234 17.791L179.288 19.721L179.126 19.627Q179.248 18.939 179.585 18.500Q179.923 18.061 180.415 17.845Q180.908 17.629 181.488 17.629Q182.285 17.629 182.798 17.980Q183.311 18.331 183.567 18.945Q183.824 19.559 183.824 20.343L183.824 25L182.231 25L182.231 20.721Q182.231 19.857 181.914 19.425Q181.596 18.992 180.948 18.992Q180.517 18.992 180.159 19.195Q179.801 19.398 179.585 19.796Q179.369 20.194 179.369 20.774 M188.225 25.162Q187.320 25.162 186.659 24.710Q185.998 24.258 185.640 23.414Q185.282 22.570 185.282 21.395Q185.282 20.221 185.640 19.377Q185.998 18.534 186.659 18.081Q187.320 17.629 188.225 17.629Q188.819 17.629 189.291 17.845Q189.764 18.061 190.075 18.419Q190.385 18.776 190.506 19.209L190.358 19.506L190.358 15.415L191.951 15.415L191.951 25L190.439 25L190.358 23.177L190.560 23.448Q190.412 23.947 190.088 24.332Q189.764 24.716 189.298 24.939Q188.832 25.162 188.225 25.162M188.603 23.731Q189.130 23.731 189.528 23.448Q189.926 23.164 190.142 22.644Q190.358 22.125 190.358 21.395Q190.358 20.653 190.142 20.133Q189.926 19.614 189.528 19.337Q189.130 19.060 188.576 19.060Q187.806 19.060 187.374 19.674Q186.942 20.288 186.942 21.395Q186.942 22.503 187.374 23.117Q187.806 23.731 188.603 23.731 M197 25.162Q195.987 25.162 195.225 24.703Q194.462 24.244 194.043 23.393Q193.625 22.543 193.625 21.395Q193.625 20.248 194.043 19.398Q194.462 18.547 195.225 18.088Q195.987 17.629 197 17.629Q198.012 17.629 198.775 18.088Q199.538 18.547 199.956 19.391Q200.375 20.235 200.375 21.395Q200.375 22.543 199.956 23.393Q199.538 24.244 198.775 24.703Q198.012 25.162 197 25.162M197 23.731Q197.823 23.731 198.269 23.117Q198.714 22.503 198.714 21.395Q198.714 20.288 198.269 19.674Q197.823 19.060 197 19.060Q196.176 19.060 195.731 19.674Q195.285 20.288 195.285 21.395Q195.285 22.503 195.731 23.117Q196.176 23.731 197 23.731" fill="#0E0B1A"/>
  </g>
  <path d="M411.016 212L409.912 212L412.504 203.480L413.896 203.480L416.488 212L415.384 212L413.200 204.416L411.016 212M415.180 209.576L411.220 209.576L411.580 208.568L414.820 208.568 M418.768 213.800L417.760 213.800L417.760 205.640L418.696 205.640L418.720 207.080L418.576 207.008Q418.816 206.264 419.374 205.880Q419.932 205.496 420.664 205.496Q421.612 205.496 422.218 205.964Q422.824 206.432 423.112 207.188Q423.400 207.944 423.400 208.820Q423.400 209.696 423.112 210.452Q422.824 211.208 422.218 211.676Q421.612 212.144 420.664 212.144Q420.172 212.144 419.746 211.976Q419.320 211.808 419.026 211.508Q418.732 211.208 418.624 210.800L418.768 210.632L418.768 213.800M420.568 211.184Q421.396 211.184 421.870 210.560Q422.344 209.936 422.344 208.820Q422.344 207.704 421.870 207.080Q421.396 206.456 420.568 206.456Q420.016 206.456 419.614 206.720Q419.212 206.984 418.990 207.512Q418.768 208.040 418.768 208.820Q418.768 209.600 418.984 210.128Q419.200 210.656 419.608 210.920Q420.016 211.184 420.568 211.184 M426.760 212.144Q426.160 212.144 425.680 211.928Q425.200 211.712 424.924 211.322Q424.648 210.932 424.648 210.416Q424.648 209.600 425.134 209.150Q425.620 208.700 426.664 208.496L428.800 208.064Q428.800 207.248 428.434 206.852Q428.068 206.456 427.384 206.456Q426.724 206.456 426.352 206.750Q425.980 207.044 425.836 207.596L424.768 207.512Q424.948 206.612 425.626 206.054Q426.304 205.496 427.384 205.496Q428.536 205.496 429.172 206.186Q429.808 206.876 429.808 208.088L429.808 210.728Q429.808 210.944 429.904 211.028Q430 211.112 430.192 211.112L430.600 211.112L430.600 212Q430.528 212.012 430.372 212.018Q430.216 212.024 430.072 212.024Q429.664 212.024 429.382 211.892Q429.100 211.760 428.956 211.466Q428.812 211.172 428.800 210.704L428.992 210.704Q428.908 211.112 428.590 211.442Q428.272 211.772 427.792 211.958Q427.312 212.144 426.760 212.144M426.856 211.256Q427.504 211.256 427.936 211.034Q428.368 210.812 428.584 210.410Q428.800 210.008 428.800 209.480L428.800 208.928L426.856 209.312Q426.208 209.432 425.956 209.678Q425.704 209.924 425.704 210.320Q425.704 210.764 426.010 211.010Q426.316 211.256 426.856 211.256 M434.968 212.144Q434.080 212.144 433.420 211.736Q432.760 211.328 432.400 210.578Q432.040 209.828 432.040 208.820Q432.040 207.812 432.400 207.068Q432.760 206.324 433.420 205.910Q434.080 205.496 434.968 205.496Q435.676 205.496 436.228 205.754Q436.780 206.012 437.140 206.504Q437.500 206.996 437.632 207.704L436.576 207.776Q436.432 207.140 436.006 206.798Q435.580 206.456 434.968 206.456Q434.092 206.456 433.594 207.086Q433.096 207.716 433.096 208.820Q433.096 209.924 433.594 210.554Q434.092 211.184 434.968 211.184Q435.580 211.184 436.030 210.824Q436.480 210.464 436.624 209.744L437.680 209.816Q437.548 210.524 437.176 211.046Q436.804 211.568 436.240 211.856Q435.676 212.144 434.968 212.144 M440.608 212L439.600 212L439.600 203.480L440.608 203.480L440.608 207.044L440.488 207.020Q440.608 206.492 440.896 206.156Q441.184 205.820 441.604 205.658Q442.024 205.496 442.516 205.496Q443.200 205.496 443.674 205.802Q444.148 206.108 444.394 206.654Q444.640 207.200 444.640 207.908L444.640 212L443.632 212L443.632 208.196Q443.632 207.272 443.302 206.828Q442.972 206.384 442.300 206.384Q441.532 206.384 441.070 206.852Q440.608 207.320 440.608 208.208 M449.272 212.144Q448.372 212.144 447.718 211.736Q447.064 211.328 446.710 210.578Q446.356 209.828 446.356 208.820Q446.356 207.812 446.710 207.068Q447.064 206.324 447.706 205.910Q448.348 205.496 449.224 205.496Q450.052 205.496 450.688 205.886Q451.324 206.276 451.684 207.020Q452.044 207.764 452.044 208.832L452.044 209.132L447.412 209.132Q447.472 210.152 447.958 210.668Q448.444 211.184 449.272 211.184Q449.896 211.184 450.298 210.890Q450.700 210.596 450.856 210.116L451.936 210.200Q451.684 211.052 450.982 211.598Q450.280 212.144 449.272 212.144M447.412 208.244L450.940 208.244Q450.868 207.320 450.400 206.888Q449.932 206.456 449.224 206.456Q448.492 206.456 448.018 206.906Q447.544 207.356 447.412 208.244 M458.560 208.976L454.240 208.976L454.240 208.028L458.560 208.028 M466.600 212L460.600 212Q460.600 211.100 460.882 210.374Q461.164 209.648 461.878 208.988Q462.592 208.328 463.864 207.656Q464.452 207.344 464.812 207.080Q465.172 206.816 465.340 206.516Q465.508 206.216 465.508 205.784Q465.508 205.340 465.316 205.010Q465.124 204.680 464.746 204.488Q464.368 204.296 463.804 204.296Q462.904 204.296 462.382 204.764Q461.860 205.232 461.728 206.096L460.648 206.024Q460.792 204.776 461.608 204.032Q462.424 203.288 463.804 203.288Q464.680 203.288 465.304 203.600Q465.928 203.912 466.258 204.470Q466.588 205.028 466.588 205.760Q466.588 206.408 466.372 206.882Q466.156 207.356 465.646 207.764Q465.136 208.172 464.248 208.640Q463.480 209.048 462.958 209.468Q462.436 209.888 462.166 210.278Q461.896 210.668 461.872 210.992L466.600 210.992 M471.544 212L470.056 212L470.056 210.536L471.544 210.536 M476.800 210.824L475.840 210.776L479.200 204.656L480.160 204.704L476.800 210.824M478 212.192Q477.076 212.192 476.398 211.652Q475.720 211.112 475.360 210.116Q475 209.120 475 207.752Q475 206.372 475.360 205.376Q475.720 204.380 476.398 203.834Q477.076 203.288 478 203.288Q478.936 203.288 479.608 203.834Q480.280 204.380 480.640 205.376Q481 206.372 481 207.752Q481 209.120 480.640 210.116Q480.280 211.112 479.608 211.652Q478.936 212.192 478 212.192M478 211.184Q478.600 211.184 479.026 210.764Q479.452 210.344 479.686 209.570Q479.920 208.796 479.920 207.752Q479.920 206.684 479.686 205.910Q479.452 205.136 479.026 204.716Q478.600 204.296 478 204.296Q477.412 204.296 476.980 204.716Q476.548 205.136 476.314 205.910Q476.080 206.684 476.080 207.752Q476.080 208.796 476.314 209.570Q476.548 210.344 476.980 210.764Q477.412 211.184 478 211.184 M493.144 209.084L491.656 209.084L491.656 207.620L493.144 207.620 M506.404 212.144Q505.564 212.144 504.952 211.736Q504.340 211.328 504.010 210.584Q503.680 209.840 503.680 208.820Q503.680 207.800 504.010 207.056Q504.340 206.312 504.952 205.904Q505.564 205.496 506.404 205.496Q506.920 205.496 507.334 205.688Q507.748 205.880 508.030 206.168Q508.312 206.456 508.420 206.756L508.312 207.008L508.312 203.480L509.320 203.480L509.320 212L508.408 212L508.348 210.560L508.504 210.740Q508.360 211.172 508.054 211.490Q507.748 211.808 507.328 211.976Q506.908 212.144 506.404 212.144M506.464 211.184Q507.040 211.184 507.454 210.896Q507.868 210.608 508.090 210.074Q508.312 209.540 508.312 208.820Q508.312 208.076 508.090 207.548Q507.868 207.020 507.448 206.738Q507.028 206.456 506.440 206.456Q505.660 206.456 505.198 207.086Q504.736 207.716 504.736 208.820Q504.736 209.912 505.198 210.548Q505.660 211.184 506.464 211.184 M514 212.144Q513.124 212.144 512.470 211.736Q511.816 211.328 511.456 210.578Q511.096 209.828 511.096 208.820Q511.096 207.800 511.456 207.056Q511.816 206.312 512.470 205.904Q513.124 205.496 514 205.496Q514.876 205.496 515.530 205.904Q516.184 206.312 516.544 207.056Q516.904 207.800 516.904 208.820Q516.904 209.828 516.544 210.578Q516.184 211.328 515.530 211.736Q514.876 212.144 514 212.144M514 211.184Q514.876 211.184 515.362 210.554Q515.848 209.924 515.848 208.820Q515.848 207.716 515.362 207.086Q514.876 206.456 514 206.456Q513.124 206.456 512.638 207.086Q512.152 207.716 512.152 208.820Q512.152 209.924 512.638 210.554Q513.124 211.184 514 211.184 M521.368 212.144Q520.480 212.144 519.820 211.736Q519.160 211.328 518.800 210.578Q518.440 209.828 518.440 208.820Q518.440 207.812 518.800 207.068Q519.160 206.324 519.820 205.910Q520.480 205.496 521.368 205.496Q522.076 205.496 522.628 205.754Q523.180 206.012 523.540 206.504Q523.900 206.996 524.032 207.704L522.976 207.776Q522.832 207.140 522.406 206.798Q521.980 206.456 521.368 206.456Q520.492 206.456 519.994 207.086Q519.496 207.716 519.496 208.820Q519.496 209.924 519.994 210.554Q520.492 211.184 521.368 211.184Q521.980 211.184 522.430 210.824Q522.880 210.464 523.024 209.744L524.080 209.816Q523.948 210.524 523.576 211.046Q523.204 211.568 522.640 211.856Q522.076 212.144 521.368 212.144 M528.520 212.144Q527.692 212.144 527.092 211.856Q526.492 211.568 526.150 211.082Q525.808 210.596 525.760 209.996L526.816 209.924Q526.912 210.512 527.338 210.848Q527.764 211.184 528.520 211.184Q529.228 211.184 529.618 210.980Q530.008 210.776 530.008 210.344Q530.008 210.068 529.876 209.888Q529.744 209.708 529.384 209.582Q529.024 209.456 528.328 209.336Q527.404 209.168 526.882 208.922Q526.360 208.676 526.144 208.304Q525.928 207.932 525.928 207.416Q525.928 206.864 526.204 206.432Q526.480 206 527.020 205.748Q527.560 205.496 528.340 205.496Q529.132 205.496 529.666 205.778Q530.200 206.060 530.512 206.522Q530.824 206.984 530.920 207.536L529.864 207.608Q529.792 207.272 529.594 207.014Q529.396 206.756 529.078 206.606Q528.760 206.456 528.328 206.456Q527.632 206.456 527.296 206.732Q526.960 207.008 526.960 207.416Q526.960 207.740 527.116 207.932Q527.272 208.124 527.620 208.238Q527.968 208.352 528.544 208.448Q529.528 208.604 530.068 208.850Q530.608 209.096 530.824 209.456Q531.040 209.816 531.040 210.344Q531.040 210.908 530.710 211.310Q530.380 211.712 529.810 211.928Q529.240 212.144 528.520 212.144 M536.344 212L534.856 212L534.856 210.536L536.344 210.536 M543.436 212L542.164 212L539.800 205.640L540.904 205.640L542.800 210.968L544.696 205.640L545.800 205.640 M550.072 212.144Q549.172 212.144 548.518 211.736Q547.864 211.328 547.510 210.578Q547.156 209.828 547.156 208.820Q547.156 207.812 547.510 207.068Q547.864 206.324 548.506 205.910Q549.148 205.496 550.024 205.496Q550.852 205.496 551.488 205.886Q552.124 206.276 552.484 207.020Q552.844 207.764 552.844 208.832L552.844 209.132L548.212 209.132Q548.272 210.152 548.758 210.668Q549.244 211.184 550.072 211.184Q550.696 211.184 551.098 210.890Q551.500 210.596 551.656 210.116L552.736 210.200Q552.484 211.052 551.782 211.598Q551.080 212.144 550.072 212.144M548.212 208.244L551.740 208.244Q551.668 207.320 551.200 206.888Q550.732 206.456 550.024 206.456Q549.292 206.456 548.818 206.906Q548.344 207.356 548.212 208.244 M555.616 212L554.608 212L554.608 205.640L555.532 205.640L555.568 207.260L555.448 207.152Q555.568 206.588 555.886 206.222Q556.204 205.856 556.648 205.676Q557.092 205.496 557.584 205.496Q558.316 205.496 558.802 205.820Q559.288 206.144 559.540 206.690Q559.792 207.236 559.792 207.908L559.792 212L558.784 212L558.784 208.196Q558.784 207.308 558.436 206.846Q558.088 206.384 557.368 206.384Q556.876 206.384 556.480 206.594Q556.084 206.804 555.850 207.206Q555.616 207.608 555.616 208.196 M564.004 212.144Q563.164 212.144 562.552 211.736Q561.940 211.328 561.610 210.584Q561.280 209.840 561.280 208.820Q561.280 207.800 561.610 207.056Q561.940 206.312 562.552 205.904Q563.164 205.496 564.004 205.496Q564.520 205.496 564.934 205.688Q565.348 205.880 565.630 206.168Q565.912 206.456 566.020 206.756L565.912 207.008L565.912 203.480L566.920 203.480L566.920 212L566.008 212L565.948 210.560L566.104 210.740Q565.960 211.172 565.654 211.490Q565.348 211.808 564.928 211.976Q564.508 212.144 564.004 212.144M564.064 211.184Q564.640 211.184 565.054 210.896Q565.468 210.608 565.690 210.074Q565.912 209.540 565.912 208.820Q565.912 208.076 565.690 207.548Q565.468 207.020 565.048 206.738Q564.628 206.456 564.040 206.456Q563.260 206.456 562.798 207.086Q562.336 207.716 562.336 208.820Q562.336 209.912 562.798 210.548Q563.260 211.184 564.064 211.184 M571.600 212.144Q570.724 212.144 570.070 211.736Q569.416 211.328 569.056 210.578Q568.696 209.828 568.696 208.820Q568.696 207.800 569.056 207.056Q569.416 206.312 570.070 205.904Q570.724 205.496 571.600 205.496Q572.476 205.496 573.130 205.904Q573.784 206.312 574.144 207.056Q574.504 207.800 574.504 208.820Q574.504 209.828 574.144 210.578Q573.784 211.328 573.130 211.736Q572.476 212.144 571.600 212.144M571.600 211.184Q572.476 211.184 572.962 210.554Q573.448 209.924 573.448 208.820Q573.448 207.716 572.962 207.086Q572.476 206.456 571.600 206.456Q570.724 206.456 570.238 207.086Q569.752 207.716 569.752 208.820Q569.752 209.924 570.238 210.554Q570.724 211.184 571.600 211.184 M579.544 212L578.056 212L578.056 210.536L579.544 210.536 M588.160 212L583.480 212L583.480 211.112L585.628 211.112L585.136 211.592L585.136 206.036L585.628 206.528L583.480 206.528L583.480 205.640L585.976 205.640L586.072 207.344L585.976 207.272Q586.072 206.444 586.480 206.042Q586.888 205.640 587.572 205.640L588.880 205.640L588.880 206.552L587.584 206.552Q587.116 206.552 586.798 206.738Q586.480 206.924 586.312 207.278Q586.144 207.632 586.144 208.160L586.144 211.592L585.664 211.112L588.160 211.112 M592.756 212.144Q591.808 212.144 591.244 211.502Q590.680 210.860 590.680 209.732L590.680 205.640L591.688 205.640L591.688 209.456Q591.688 210.380 592.018 210.818Q592.348 211.256 593.032 211.256Q593.776 211.256 594.208 210.770Q594.640 210.284 594.640 209.432L594.640 205.640L595.648 205.640L595.648 212L594.688 212L594.688 210.428L594.844 210.512Q594.652 211.292 594.112 211.718Q593.572 212.144 592.756 212.144 M598.816 212L597.808 212L597.808 205.640L598.732 205.640L598.768 207.260L598.648 207.152Q598.768 206.588 599.086 206.222Q599.404 205.856 599.848 205.676Q600.292 205.496 600.784 205.496Q601.516 205.496 602.002 205.820Q602.488 206.144 602.740 206.690Q602.992 207.236 602.992 207.908L602.992 212L601.984 212L601.984 208.196Q601.984 207.308 601.636 206.846Q601.288 206.384 600.568 206.384Q600.076 206.384 599.680 206.594Q599.284 206.804 599.050 207.206Q598.816 207.608 598.816 208.196 M615.544 209.084L614.056 209.084L614.056 207.620L615.544 207.620 M629.836 212L628.564 212L626.200 205.640L627.304 205.640L629.200 210.968L631.096 205.640L632.200 205.640 M636.472 212.144Q635.572 212.144 634.918 211.736Q634.264 211.328 633.910 210.578Q633.556 209.828 633.556 208.820Q633.556 207.812 633.910 207.068Q634.264 206.324 634.906 205.910Q635.548 205.496 636.424 205.496Q637.252 205.496 637.888 205.886Q638.524 206.276 638.884 207.020Q639.244 207.764 639.244 208.832L639.244 209.132L634.612 209.132Q634.672 210.152 635.158 210.668Q635.644 211.184 636.472 211.184Q637.096 211.184 637.498 210.890Q637.900 210.596 638.056 210.116L639.136 210.200Q638.884 211.052 638.182 211.598Q637.480 212.144 636.472 212.144M634.612 208.244L638.140 208.244Q638.068 207.320 637.600 206.888Q637.132 206.456 636.424 206.456Q635.692 206.456 635.218 206.906Q634.744 207.356 634.612 208.244 M642.016 212L641.008 212L641.008 205.640L641.932 205.640L641.968 207.260L641.848 207.152Q641.968 206.588 642.286 206.222Q642.604 205.856 643.048 205.676Q643.492 205.496 643.984 205.496Q644.716 205.496 645.202 205.820Q645.688 206.144 645.940 206.690Q646.192 207.236 646.192 207.908L646.192 212L645.184 212L645.184 208.196Q645.184 207.308 644.836 206.846Q644.488 206.384 643.768 206.384Q643.276 206.384 642.880 206.594Q642.484 206.804 642.250 207.206Q642.016 207.608 642.016 208.196 M650.404 212.144Q649.564 212.144 648.952 211.736Q648.340 211.328 648.010 210.584Q647.680 209.840 647.680 208.820Q647.680 207.800 648.010 207.056Q648.340 206.312 648.952 205.904Q649.564 205.496 650.404 205.496Q650.920 205.496 651.334 205.688Q651.748 205.880 652.030 206.168Q652.312 206.456 652.420 206.756L652.312 207.008L652.312 203.480L653.320 203.480L653.320 212L652.408 212L652.348 210.560L652.504 210.740Q652.360 211.172 652.054 211.490Q651.748 211.808 651.328 211.976Q650.908 212.144 650.404 212.144M650.464 211.184Q651.040 211.184 651.454 210.896Q651.868 210.608 652.090 210.074Q652.312 209.540 652.312 208.820Q652.312 208.076 652.090 207.548Q651.868 207.020 651.448 206.738Q651.028 206.456 650.440 206.456Q649.660 206.456 649.198 207.086Q648.736 207.716 648.736 208.820Q648.736 209.912 649.198 210.548Q649.660 211.184 650.464 211.184 M658 212.144Q657.124 212.144 656.470 211.736Q655.816 211.328 655.456 210.578Q655.096 209.828 655.096 208.820Q655.096 207.800 655.456 207.056Q655.816 206.312 656.470 205.904Q657.124 205.496 658 205.496Q658.876 205.496 659.530 205.904Q660.184 206.312 660.544 207.056Q660.904 207.800 660.904 208.820Q660.904 209.828 660.544 210.578Q660.184 211.328 659.530 211.736Q658.876 212.144 658 212.144M658 211.184Q658.876 211.184 659.362 210.554Q659.848 209.924 659.848 208.820Q659.848 207.716 659.362 207.086Q658.876 206.456 658 206.456Q657.124 206.456 656.638 207.086Q656.152 207.716 656.152 208.820Q656.152 209.924 656.638 210.554Q657.124 211.184 658 211.184 M665.944 212L664.456 212L664.456 210.536L665.944 210.536 M674.560 212L669.880 212L669.880 211.112L672.028 211.112L671.536 211.592L671.536 206.036L672.028 206.528L669.880 206.528L669.880 205.640L672.376 205.640L672.472 207.344L672.376 207.272Q672.472 206.444 672.880 206.042Q673.288 205.640 673.972 205.640L675.280 205.640L675.280 206.552L673.984 206.552Q673.516 206.552 673.198 206.738Q672.880 206.924 672.712 207.278Q672.544 207.632 672.544 208.160L672.544 211.592L672.064 211.112L674.560 211.112 M679.156 212.144Q678.208 212.144 677.644 211.502Q677.080 210.860 677.080 209.732L677.080 205.640L678.088 205.640L678.088 209.456Q678.088 210.380 678.418 210.818Q678.748 211.256 679.432 211.256Q680.176 211.256 680.608 210.770Q681.040 210.284 681.040 209.432L681.040 205.640L682.048 205.640L682.048 212L681.088 212L681.088 210.428L681.244 210.512Q681.052 211.292 680.512 211.718Q679.972 212.144 679.156 212.144 M685.216 212L684.208 212L684.208 205.640L685.132 205.640L685.168 207.260L685.048 207.152Q685.168 206.588 685.486 206.222Q685.804 205.856 686.248 205.676Q686.692 205.496 687.184 205.496Q687.916 205.496 688.402 205.820Q688.888 206.144 689.140 206.690Q689.392 207.236 689.392 207.908L689.392 212L688.384 212L688.384 208.196Q688.384 207.308 688.036 206.846Q687.688 206.384 686.968 206.384Q686.476 206.384 686.080 206.594Q685.684 206.804 685.450 207.206Q685.216 207.608 685.216 208.196 M701.944 209.084L700.456 209.084L700.456 207.620L701.944 207.620 M715.780 212L713.080 212L713.080 203.480L715.480 203.480Q716.884 203.480 717.598 204.104Q718.312 204.728 718.312 205.808Q718.312 206.336 718.060 206.756Q717.808 207.176 717.352 207.416Q716.896 207.656 716.296 207.656L716.296 207.584Q717.040 207.584 717.574 207.836Q718.108 208.088 718.390 208.544Q718.672 209 718.672 209.624Q718.672 210.728 717.904 211.364Q717.136 212 715.780 212M714.112 208.172L714.112 210.992L715.792 210.992Q716.716 210.992 717.154 210.632Q717.592 210.272 717.592 209.624Q717.592 208.940 717.136 208.556Q716.680 208.172 715.792 208.172L714.112 208.172M714.112 204.488L714.112 207.164L715.528 207.164Q716.416 207.164 716.824 206.816Q717.232 206.468 717.232 205.832Q717.232 205.184 716.824 204.836Q716.416 204.488 715.528 204.488 M721.960 212.144Q721.360 212.144 720.880 211.928Q720.400 211.712 720.124 211.322Q719.848 210.932 719.848 210.416Q719.848 209.600 720.334 209.150Q720.820 208.700 721.864 208.496L724 208.064Q724 207.248 723.634 206.852Q723.268 206.456 722.584 206.456Q721.924 206.456 721.552 206.750Q721.180 207.044 721.036 207.596L719.968 207.512Q720.148 206.612 720.826 206.054Q721.504 205.496 722.584 205.496Q723.736 205.496 724.372 206.186Q725.008 206.876 725.008 208.088L725.008 210.728Q725.008 210.944 725.104 211.028Q725.200 211.112 725.392 211.112L725.800 211.112L725.800 212Q725.728 212.012 725.572 212.018Q725.416 212.024 725.272 212.024Q724.864 212.024 724.582 211.892Q724.300 211.760 724.156 211.466Q724.012 211.172 724 210.704L724.192 210.704Q724.108 211.112 723.790 211.442Q723.472 211.772 722.992 211.958Q722.512 212.144 721.960 212.144M722.056 211.256Q722.704 211.256 723.136 211.034Q723.568 210.812 723.784 210.410Q724 210.008 724 209.480L724 208.928L722.056 209.312Q721.408 209.432 721.156 209.678Q720.904 209.924 720.904 210.320Q720.904 210.764 721.210 211.010Q721.516 211.256 722.056 211.256 M730.168 212.144Q729.280 212.144 728.620 211.736Q727.960 211.328 727.600 210.578Q727.240 209.828 727.240 208.820Q727.240 207.812 727.600 207.068Q727.960 206.324 728.620 205.910Q729.280 205.496 730.168 205.496Q730.876 205.496 731.428 205.754Q731.980 206.012 732.340 206.504Q732.700 206.996 732.832 207.704L731.776 207.776Q731.632 207.140 731.206 206.798Q730.780 206.456 730.168 206.456Q729.292 206.456 728.794 207.086Q728.296 207.716 728.296 208.820Q728.296 209.924 728.794 210.554Q729.292 211.184 730.168 211.184Q730.780 211.184 731.230 210.824Q731.680 210.464 731.824 209.744L732.880 209.816Q732.748 210.524 732.376 211.046Q732.004 211.568 731.440 211.856Q730.876 212.144 730.168 212.144 M735.688 212L734.680 212L734.680 203.480L735.688 203.480L735.688 209.060L738.784 205.640L740.128 205.640L737.620 208.340L740.248 212L739.024 212L736.936 209.024L735.688 210.344 M744.472 212.144Q743.572 212.144 742.918 211.736Q742.264 211.328 741.910 210.578Q741.556 209.828 741.556 208.820Q741.556 207.812 741.910 207.068Q742.264 206.324 742.906 205.910Q743.548 205.496 744.424 205.496Q745.252 205.496 745.888 205.886Q746.524 206.276 746.884 207.020Q747.244 207.764 747.244 208.832L747.244 209.132L742.612 209.132Q742.672 210.152 743.158 210.668Q743.644 211.184 744.472 211.184Q745.096 211.184 745.498 210.890Q745.900 210.596 746.056 210.116L747.136 210.200Q746.884 211.052 746.182 211.598Q745.480 212.144 744.472 212.144M742.612 208.244L746.140 208.244Q746.068 207.320 745.600 206.888Q745.132 206.456 744.424 206.456Q743.692 206.456 743.218 206.906Q742.744 207.356 742.612 208.244 M751.204 212.144Q750.364 212.144 749.752 211.736Q749.140 211.328 748.810 210.584Q748.480 209.840 748.480 208.820Q748.480 207.800 748.810 207.056Q749.140 206.312 749.752 205.904Q750.364 205.496 751.204 205.496Q751.720 205.496 752.134 205.688Q752.548 205.880 752.830 206.168Q753.112 206.456 753.220 206.756L753.112 207.008L753.112 203.480L754.120 203.480L754.120 212L753.208 212L753.148 210.560L753.304 210.740Q753.160 211.172 752.854 211.490Q752.548 211.808 752.128 211.976Q751.708 212.144 751.204 212.144M751.264 211.184Q751.840 211.184 752.254 210.896Q752.668 210.608 752.890 210.074Q753.112 209.540 753.112 208.820Q753.112 208.076 752.890 207.548Q752.668 207.020 752.248 206.738Q751.828 206.456 751.240 206.456Q750.460 206.456 749.998 207.086Q749.536 207.716 749.536 208.820Q749.536 209.912 749.998 210.548Q750.460 211.184 751.264 211.184 M766.396 212.144Q765.892 212.144 765.472 211.976Q765.052 211.808 764.752 211.490Q764.452 211.172 764.296 210.740L764.452 210.560L764.392 212L763.480 212L763.480 203.480L764.488 203.480L764.488 207.008L764.380 206.756Q764.488 206.456 764.770 206.168Q765.052 205.880 765.472 205.688Q765.892 205.496 766.396 205.496Q767.236 205.496 767.848 205.904Q768.460 206.312 768.790 207.056Q769.120 207.800 769.120 208.820Q769.120 209.840 768.790 210.584Q768.460 211.328 767.848 211.736Q767.236 212.144 766.396 212.144M766.336 211.184Q767.140 211.184 767.602 210.548Q768.064 209.912 768.064 208.820Q768.064 207.716 767.602 207.086Q767.140 206.456 766.360 206.456Q765.772 206.456 765.352 206.738Q764.932 207.020 764.710 207.548Q764.488 208.076 764.488 208.820Q764.488 209.540 764.710 210.074Q764.932 210.608 765.346 210.896Q765.760 211.184 766.336 211.184 M772.060 213.800L771.232 213.800L771.232 212.912L771.964 212.912Q772.300 212.912 772.462 212.810Q772.624 212.708 772.708 212.480L772.936 211.880L772.588 211.880L770.224 205.640L771.328 205.640L773.260 210.944L775.072 205.640L776.176 205.640L773.596 212.804Q773.416 213.320 773.056 213.560Q772.696 213.800 772.060 213.800 M788.128 212L787.096 212L787.096 208.520L784.480 203.480L785.656 203.480L787.600 207.464L789.544 203.480L790.720 203.480L788.128 208.520 M802.024 212.192Q801.004 212.192 800.296 211.652Q799.588 211.112 799.222 210.116Q798.856 209.120 798.856 207.752Q798.856 206.372 799.222 205.376Q799.588 204.380 800.296 203.834Q801.004 203.288 802.024 203.288Q803.152 203.288 803.944 204.026Q804.736 204.764 805 206.084L803.896 206.156Q803.692 205.232 803.194 204.764Q802.696 204.296 802.024 204.296Q801.340 204.296 800.878 204.698Q800.416 205.100 800.176 205.874Q799.936 206.648 799.936 207.752Q799.936 208.844 800.176 209.612Q800.416 210.380 800.878 210.782Q801.340 211.184 802.024 211.184Q802.768 211.184 803.284 210.668Q803.800 210.152 803.980 209.132L805.072 209.192Q804.844 210.596 804.040 211.394Q803.236 212.192 802.024 212.192 M809.200 212.144Q808.324 212.144 807.670 211.736Q807.016 211.328 806.656 210.578Q806.296 209.828 806.296 208.820Q806.296 207.800 806.656 207.056Q807.016 206.312 807.670 205.904Q808.324 205.496 809.200 205.496Q810.076 205.496 810.730 205.904Q811.384 206.312 811.744 207.056Q812.104 207.800 812.104 208.820Q812.104 209.828 811.744 210.578Q811.384 211.328 810.730 211.736Q810.076 212.144 809.200 212.144M809.200 211.184Q810.076 211.184 810.562 210.554Q811.048 209.924 811.048 208.820Q811.048 207.716 810.562 207.086Q810.076 206.456 809.200 206.456Q808.324 206.456 807.838 207.086Q807.352 207.716 807.352 208.820Q807.352 209.924 807.838 210.554Q808.324 211.184 809.200 211.184 M814.288 212L813.280 212L813.280 205.640L814.204 205.640L814.240 207.056L814.120 207.032Q814.228 206.324 814.582 205.910Q814.936 205.496 815.488 205.496Q816.052 205.496 816.358 205.904Q816.664 206.312 816.736 207.104L816.616 207.104Q816.724 206.360 817.102 205.928Q817.480 205.496 818.056 205.496Q818.824 205.496 819.172 206.024Q819.520 206.552 819.520 207.776L819.520 212L818.512 212L818.512 207.920Q818.512 207.068 818.332 206.726Q818.152 206.384 817.768 206.384Q817.516 206.384 817.324 206.546Q817.132 206.708 817.018 207.056Q816.904 207.404 816.904 207.944L816.904 212L815.896 212L815.896 207.920Q815.896 207.104 815.722 206.744Q815.548 206.384 815.152 206.384Q814.900 206.384 814.708 206.546Q814.516 206.708 814.402 207.056Q814.288 207.404 814.288 207.944 M823.996 212.144Q823.492 212.144 823.072 211.976Q822.652 211.808 822.352 211.490Q822.052 211.172 821.896 210.740L822.052 210.560L821.992 212L821.080 212L821.080 203.480L822.088 203.480L822.088 207.008L821.980 206.756Q822.088 206.456 822.370 206.168Q822.652 205.880 823.072 205.688Q823.492 205.496 823.996 205.496Q824.836 205.496 825.448 205.904Q826.060 206.312 826.390 207.056Q826.720 207.800 826.720 208.820Q826.720 209.840 826.390 210.584Q826.060 211.328 825.448 211.736Q824.836 212.144 823.996 212.144M823.936 211.184Q824.740 211.184 825.202 210.548Q825.664 209.912 825.664 208.820Q825.664 207.716 825.202 207.086Q824.740 206.456 823.960 206.456Q823.372 206.456 822.952 206.738Q822.532 207.020 822.310 207.548Q822.088 208.076 822.088 208.820Q822.088 209.540 822.310 210.074Q822.532 210.608 822.946 210.896Q823.360 211.184 823.936 211.184 M830.716 212L828.160 212L828.160 211.112L830.716 211.112L830.716 206.036L831.208 206.528L828.280 206.528L828.280 205.640L831.724 205.640L831.724 211.112L833.920 211.112L833.920 212L831.724 212L830.716 212M831.676 204.644L830.620 204.644L830.620 203.468L831.676 203.468 M836.416 212L835.408 212L835.408 205.640L836.332 205.640L836.368 207.260L836.248 207.152Q836.368 206.588 836.686 206.222Q837.004 205.856 837.448 205.676Q837.892 205.496 838.384 205.496Q839.116 205.496 839.602 205.820Q840.088 206.144 840.340 206.690Q840.592 207.236 840.592 207.908L840.592 212L839.584 212L839.584 208.196Q839.584 207.308 839.236 206.846Q838.888 206.384 838.168 206.384Q837.676 206.384 837.280 206.594Q836.884 206.804 836.650 207.206Q836.416 207.608 836.416 208.196 M844.360 212.144Q843.760 212.144 843.280 211.928Q842.800 211.712 842.524 211.322Q842.248 210.932 842.248 210.416Q842.248 209.600 842.734 209.150Q843.220 208.700 844.264 208.496L846.400 208.064Q846.400 207.248 846.034 206.852Q845.668 206.456 844.984 206.456Q844.324 206.456 843.952 206.750Q843.580 207.044 843.436 207.596L842.368 207.512Q842.548 206.612 843.226 206.054Q843.904 205.496 844.984 205.496Q846.136 205.496 846.772 206.186Q847.408 206.876 847.408 208.088L847.408 210.728Q847.408 210.944 847.504 211.028Q847.600 211.112 847.792 211.112L848.200 211.112L848.200 212Q848.128 212.012 847.972 212.018Q847.816 212.024 847.672 212.024Q847.264 212.024 846.982 211.892Q846.700 211.760 846.556 211.466Q846.412 211.172 846.400 210.704L846.592 210.704Q846.508 211.112 846.190 211.442Q845.872 211.772 845.392 211.958Q844.912 212.144 844.360 212.144M844.456 211.256Q845.104 211.256 845.536 211.034Q845.968 210.812 846.184 210.410Q846.400 210.008 846.400 209.480L846.400 208.928L844.456 209.312Q843.808 209.432 843.556 209.678Q843.304 209.924 843.304 210.320Q843.304 210.764 843.610 211.010Q843.916 211.256 844.456 211.256 M855.040 212L853.336 212Q852.412 212 851.956 211.568Q851.500 211.136 851.500 210.248L851.500 204.152L852.508 204.152L852.508 210.248Q852.508 210.692 852.712 210.902Q852.916 211.112 853.336 211.112L855.040 211.112L855.040 212M855.040 206.528L849.400 206.528L849.400 205.640L855.040 205.640 M859.600 212.144Q858.724 212.144 858.070 211.736Q857.416 211.328 857.056 210.578Q856.696 209.828 856.696 208.820Q856.696 207.800 857.056 207.056Q857.416 206.312 858.070 205.904Q858.724 205.496 859.600 205.496Q860.476 205.496 861.130 205.904Q861.784 206.312 862.144 207.056Q862.504 207.800 862.504 208.820Q862.504 209.828 862.144 210.578Q861.784 211.328 861.130 211.736Q860.476 212.144 859.600 212.144M859.600 211.184Q860.476 211.184 860.962 210.554Q861.448 209.924 861.448 208.820Q861.448 207.716 860.962 207.086Q860.476 206.456 859.600 206.456Q858.724 206.456 858.238 207.086Q857.752 207.716 857.752 208.820Q857.752 209.924 858.238 210.554Q858.724 211.184 859.600 211.184 M868.960 212L864.280 212L864.280 211.112L866.428 211.112L865.936 211.592L865.936 206.036L866.428 206.528L864.280 206.528L864.280 205.640L866.776 205.640L866.872 207.344L866.776 207.272Q866.872 206.444 867.280 206.042Q867.688 205.640 868.372 205.640L869.680 205.640L869.680 206.552L868.384 206.552Q867.916 206.552 867.598 206.738Q867.280 206.924 867.112 207.278Q866.944 207.632 866.944 208.160L866.944 211.592L866.464 211.112L868.960 211.112" fill="#8B879B"/>
</svg>
