<svg xmlns="http://www.w3.org/2000/svg" width="280" height="18" viewBox="0 0 280 18"><rect x="0" y="5" width="8" height="8" rx="1.5" fill="#C4ADFF"/><path d="M18.200 12.922L17.320 12.878L20.400 7.268L21.280 7.312L18.200 12.922M19.300 14.176Q18.453 14.176 17.831 13.681Q17.210 13.186 16.880 12.273Q16.550 11.360 16.550 10.106Q16.550 8.841 16.880 7.928Q17.210 7.015 17.831 6.515Q18.453 6.014 19.300 6.014Q20.158 6.014 20.774 6.515Q21.390 7.015 21.720 7.928Q22.050 8.841 22.050 10.106Q22.050 11.360 21.720 12.273Q21.390 13.186 20.774 13.681Q20.158 14.176 19.300 14.176M19.300 13.252Q19.850 13.252 20.241 12.867Q20.631 12.482 20.846 11.773Q21.060 11.063 21.060 10.106Q21.060 9.127 20.846 8.418Q20.631 7.708 20.241 7.323Q19.850 6.938 19.300 6.938Q18.761 6.938 18.365 7.323Q17.969 7.708 17.755 8.418Q17.540 9.127 17.540 10.106Q17.540 11.063 17.755 11.773Q17.969 12.482 18.365 12.867Q18.761 13.252 19.300 13.252 M29.814 14L28.868 14L28.868 12.306L25.040 12.306L25.040 11.448L28.802 6.190L29.814 6.190L29.814 11.382L30.760 11.382L30.760 12.306L29.814 12.306L29.814 14M28.868 7.510L26.008 11.382L28.868 11.382 M45.782 11.327L44.418 11.327L44.418 9.985L45.782 9.985 M60.936 14L59.990 14L59.990 6.190L62.366 6.190Q63.180 6.190 63.785 6.476Q64.390 6.762 64.720 7.296Q65.050 7.829 65.050 8.577Q65.050 9.325 64.720 9.858Q64.390 10.392 63.785 10.678Q63.180 10.964 62.366 10.964L60.936 10.964L60.936 14M60.936 7.114L60.936 10.040L62.256 10.040Q63.180 10.040 63.620 9.660Q64.060 9.281 64.060 8.577Q64.060 7.862 63.620 7.488Q63.180 7.114 62.256 7.114 M68.898 14L67.886 14L70.262 6.190L71.538 6.190L73.914 14L72.902 14L70.900 7.048L68.898 14M72.715 11.778L69.085 11.778L69.415 10.854L72.385 10.854 M79.522 14.176Q78.587 14.176 77.938 13.681Q77.289 13.186 76.954 12.273Q76.618 11.360 76.618 10.106Q76.618 8.841 76.954 7.928Q77.289 7.015 77.938 6.515Q78.587 6.014 79.522 6.014Q80.556 6.014 81.282 6.691Q82.008 7.367 82.250 8.577L81.238 8.643Q81.051 7.796 80.594 7.367Q80.138 6.938 79.522 6.938Q78.895 6.938 78.472 7.307Q78.048 7.675 77.828 8.384Q77.608 9.094 77.608 10.106Q77.608 11.107 77.828 11.811Q78.048 12.515 78.472 12.883Q78.895 13.252 79.522 13.252Q80.204 13.252 80.677 12.779Q81.150 12.306 81.315 11.371L82.316 11.426Q82.107 12.713 81.370 13.444Q80.633 14.176 79.522 14.176 M90.850 6.190L86.296 11.514L86.296 10.238L89.684 6.190L90.850 6.190M86.406 14L85.460 14L85.460 6.190L86.406 6.190L86.406 14M90.960 14L89.794 14L87.066 10.040L87.726 9.358 M94.698 14L93.686 14L96.062 6.190L97.338 6.190L99.714 14L98.702 14L96.700 7.048L94.698 14M98.515 11.778L94.885 11.778L95.215 10.854L98.185 10.854 M105.278 14.176Q104.453 14.176 103.809 13.720Q103.166 13.263 102.792 12.355Q102.418 11.448 102.418 10.106Q102.418 8.841 102.764 7.928Q103.111 7.015 103.760 6.515Q104.409 6.014 105.322 6.014Q106.037 6.014 106.593 6.333Q107.148 6.652 107.522 7.219Q107.896 7.785 108.061 8.522L107.071 8.588Q106.884 7.862 106.450 7.400Q106.015 6.938 105.322 6.938Q104.717 6.938 104.288 7.307Q103.859 7.675 103.633 8.384Q103.408 9.094 103.408 10.106Q103.408 11.107 103.639 11.811Q103.870 12.515 104.305 12.883Q104.739 13.252 105.366 13.252Q105.927 13.252 106.329 12.960Q106.730 12.669 106.961 12.146Q107.192 11.624 107.214 10.953L105.344 10.953L105.344 10.051L108.094 10.051L108.094 14L107.214 14L107.170 12.152L107.434 12.240Q107.280 12.801 107.010 13.241Q106.741 13.681 106.317 13.928Q105.894 14.176 105.278 14.176 M116.430 14L111.590 14L111.590 6.190L116.342 6.190L116.342 7.114L112.536 7.114L112.536 9.633L116.210 9.633L116.210 10.535L112.536 10.535L112.536 13.076L116.430 13.076 M122.621 14.176Q121.796 14.176 121.158 13.835Q120.520 13.494 120.135 12.895Q119.750 12.295 119.684 11.503L120.674 11.437Q120.751 12.020 121.010 12.427Q121.268 12.834 121.681 13.043Q122.093 13.252 122.643 13.252Q123.193 13.252 123.567 13.114Q123.941 12.977 124.133 12.707Q124.326 12.438 124.326 12.053Q124.326 11.679 124.156 11.409Q123.985 11.140 123.517 10.904Q123.050 10.667 122.137 10.414Q121.323 10.183 120.823 9.902Q120.322 9.622 120.097 9.221Q119.871 8.819 119.871 8.236Q119.871 7.576 120.184 7.076Q120.498 6.575 121.081 6.295Q121.664 6.014 122.467 6.014Q123.270 6.014 123.842 6.339Q124.414 6.663 124.749 7.224Q125.085 7.785 125.173 8.500L124.183 8.566Q124.117 8.093 123.908 7.724Q123.699 7.356 123.336 7.147Q122.973 6.938 122.445 6.938Q121.719 6.938 121.290 7.285Q120.861 7.631 120.861 8.192Q120.861 8.555 121.020 8.791Q121.180 9.028 121.587 9.210Q121.994 9.391 122.731 9.600Q123.688 9.864 124.255 10.194Q124.821 10.524 125.069 10.975Q125.316 11.426 125.316 12.075Q125.316 12.691 124.975 13.169Q124.634 13.648 124.029 13.912Q123.424 14.176 122.621 14.176" fill="#8B879B"/></svg>
