<svg xmlns="http://www.w3.org/2000/svg" viewBox="0 0 96 96">
  <defs>
    <linearGradient id="vendo-body" x1="0.15" y1="0.1" x2="0.85" y2="0.95">
      <stop offset="0" stop-color="#818CF8"/>
      <stop offset="0.6" stop-color="#5B54DB"/>
      <stop offset="1" stop-color="#4338CA"/>
    </linearGradient>
    <radialGradient id="vendo-caustic" cx="0.35" cy="0.8" r="0.45">
      <stop offset="0" stop-color="#5ED2EA" stop-opacity="0.5"/>
      <stop offset="1" stop-color="#5ED2EA" stop-opacity="0"/>
    </radialGradient>
    <clipPath id="vendo-clip">
      <path d="M60 12 C74 15 85 26 86 41 C87 54 80 62 82 72 C83.5 80 76 86 68 83 C60 80 56 84 46 85 C30 86.5 14 76 12 59 C10 42 20 30 33 22 C42 16.5 50 10 60 12 Z"/>
    </clipPath>
  </defs>
  <path d="M60 12 C74 15 85 26 86 41 C87 54 80 62 82 72 C83.5 80 76 86 68 83 C60 80 56 84 46 85 C30 86.5 14 76 12 59 C10 42 20 30 33 22 C42 16.5 50 10 60 12 Z" fill="url(#vendo-body)"/>
  <g clip-path="url(#vendo-clip)">
    <ellipse cx="36" cy="74" rx="28" ry="18" fill="url(#vendo-caustic)"/>
  </g>
  <path d="M31 30 C26 36 23 43 24 50 C24.5 53.5 28.5 54 30 51 C32.5 46 31.5 39 35 33.5 C37 30 34 27 31 30 Z" fill="#FFFFFF" opacity="0.9"/>
  <circle cx="39" cy="24" r="2.8" fill="#FFFFFF" opacity="0.8"/>
</svg>
