<svg xmlns="http://www.w3.org/2000/svg" viewBox="0 -195 1000 1000" fill="none">
<path fill="currentColor" d="M146.5 344.176c9.105 0 17.994.913 26.58 2.654a131.8 131.8 0 0 1 47.16 19.663 132.3 132.3 0 0 1 19.522 15.957 131.7 131.7 0 0 1 16.106 19.34 130 130 0 0 1 12.161 22.2 129 129 0 0 1 7.686 24.53 130 130 0 0 1 2.68 26.338c0 9.023-.923 17.831-2.68 26.339a129 129 0 0 1-7.686 24.531 130 130 0 0 1-12.16 22.198 131.7 131.7 0 0 1-16.107 19.34 132.3 132.3 0 0 1-19.521 15.957 131.85 131.85 0 0 1-47.161 19.663 133.7 133.7 0 0 1-26.58 2.654c-9.104 0-17.993-.915-26.578-2.656a131.8 131.8 0 0 1-47.156-19.664 132.3 132.3 0 0 1-19.517-15.957 131.6 131.6 0 0 1-16.103-19.34 130 130 0 0 1-12.16-22.198 129 129 0 0 1-7.683-24.53 130 130 0 0 1-2.68-26.337c0-9.022.923-17.83 2.68-26.337a129 129 0 0 1 7.684-24.531 130 130 0 0 1 12.159-22.197 131.6 131.6 0 0 1 16.103-19.34 132.3 132.3 0 0 1 19.517-15.957 132 132 0 0 1 22.401-12.049 131.7 131.7 0 0 1 24.755-7.615 133.7 133.7 0 0 1 26.578-2.656M319.144 4.46c18.208 0 35.556 3.656 51.334 10.27a132.2 132.2 0 0 1 41.923 28.005c11.935 11.824 21.593 25.904 28.268 41.539s10.367 32.824 10.369 50.868c0 3.073-.846 15.152-1.262 18.111-1.493 10.648-3.146 21.604-4.503 32.641-1.663 13.514-2.24 28.603-2.19 41.949.042 11.346 3.351 31.26 6.515 40.056 4.303 11.967 3.5 12.418 9.785 22.465l7.63 11.64 6.882 10.107 9.725 14.21c.703.855 14.282 21.69 18.261 21.688 4.138-.004 16.768-21.94 21.33-27.979l7.918-11.933 6.183-8.97 7.102-12.475c5.354-10.08 6.594-12.268 9.582-24.673 2.844-11.806 3.436-19.263 4.332-37.287.793-15.97-.54-26.739-2.22-40.594-1.353-11.155-4.847-44.897-4.847-47.032 0-17.567 3.893-34.423 10.237-49.724 6.687-16.131 16.536-30.643 28.784-42.78A132.2 132.2 0 0 1 632.2 16.558c15.778-6.613 33.124-10.27 51.332-10.271 15.856 0 31.06 2.772 45.143 7.856a132.1 132.1 0 0 1 48.119 30.418c11.934 11.824 21.593 25.904 28.268 41.539s10.366 32.825 10.366 50.869c0 3.508-1.098 17.26-1.636 20.618-1.425 8.894-2.971 17.976-4.356 27.128-2.105 13.905-6.374 29.145-5.919 42.958.434 13.184 1.196 26.446 3.634 37.18 3.462 15.249 8.525 21.77 13.05 30.667l9.872 15.641c8.903 9.176 10.273 14.173 21.351 21.31 11.836 7.624 25.139 12.28 38.763 16.483 13.53 4.174 25.657 10.573 37.103 18.437a132.1 132.1 0 0 1 29.991 28.449 130 130 0 0 1 19.499 35.947c4.749 13.487 7.33 27.98 7.331 43.072 0 18.045-3.69 35.235-10.363 50.87-6.674 15.635-16.33 29.715-28.262 41.539a132.1 132.1 0 0 1-44.68 29.125c-15.031 5.904-31.42 9.149-48.573 9.149-18.21 0-35.556-3.657-51.334-10.27a132.2 132.2 0 0 1-41.918-28.005c-11.895-11.788-21.528-25.817-28.2-41.394-6.71-15.674-10.424-32.914-10.424-51.014 0-3.874.842-20.59 1.462-24.285 8.879-52.919 10.688-57.614 8.334-84.925-1.276-14.809-4.638-29.037-11.14-40.11l-12.141-20.791-8.435-14.46c-4.155-6.395-10.373-19.158-14.683-19.475-3.328-.246-12.516 15.715-16.862 21.603l-8.268 11.524-8.803 12.796c-7.415 11.943-9.524 19.117-12.329 28.846-3.517 12.198-4.005 23.82-4.028 37.047-.02 10.963.787 22.118 1.973 33.244 1.504 14.104 3.616 28.164 5.424 41.729.376 2.823 1.139 14.332 1.139 17.257 0 18.045-3.692 35.235-10.366 50.87-6.675 15.635-16.333 29.715-28.268 41.539a132.2 132.2 0 0 1-41.924 28.005c-15.779 6.612-33.127 10.269-51.336 10.269-17.924 0-35.013-3.544-50.591-9.962a132.1 132.1 0 0 1-42.661-28.314c-10.7-10.602-19.57-23.019-26.098-36.743-8.034-16.887-12.527-35.755-12.527-55.664 0-12.817 1.373-23.398 1.744-36.637.527-18.846 1.402-26.346 1.726-41.846.37-17.743-1.823-28.457-5.289-39.156-3.83-11.827-8.641-21.906-15.855-32.545 0 0-8.85-13.217-20.296-24.18-9.08-8.695-22.707-16.088-30.558-20.98-10.083-6.283-20.695-12-31.306-17.623-8.027-4.255-16.055-8.454-23.854-12.805a132.2 132.2 0 0 1-29.494-22.388 131.3 131.3 0 0 1-19.202-24.637 129.3 129.3 0 0 1-14.217-33.46 129.8 129.8 0 0 1-4.363-33.46c.002-18.043 3.692-35.231 10.366-50.866s16.33-29.714 28.262-41.538a132.2 132.2 0 0 1 39.313-26.882C281.67 8.533 299.927 4.46 319.144 4.459"/>
</svg>
